<?xml version="1.0" encoding="UTF-8"?>
<svg width="666px" height="61px" viewBox="0 0 666 61" version="1.1" xmlns="http://www.w3.org/2000/svg" xmlns:xlink="http://www.w3.org/1999/xlink">
    <!-- Generator: Sketch 54.1 (76490) - https://sketchapp.com -->
    <title>Group 7</title>
    <desc>Created with Sketch.</desc>
    <g id="SPLASH" stroke="none" stroke-width="1" fill="none" fill-rule="evenodd">
        <g id="Artboard-Copy" transform="translate(-383.000000, -266.000000)" fill="#814267" fill-rule="nonzero">
            <g id="Group-7" transform="translate(383.161133, 266.300000)">
                <path d="M52.7013672,44.1 C51.6513619,45.7500083 50.3888746,47.3249925 48.9138672,48.825 C47.4388598,50.3250075 45.8138761,51.4874959 44.0388672,52.3125 C42.2638583,53.1375041 40.4138768,53.5125004 38.4888672,53.4375 C36.5638576,53.3624996 34.6763764,52.625007 32.8263672,51.225 C31.1763589,50.024994 29.8888718,48.5000093 28.9638672,46.65 C28.0388626,44.7999908 27.3763692,42.8250105 26.9763672,40.725 C26.5763652,38.6249895 26.4138668,36.4875109 26.4888672,34.3125 C26.5638676,32.1374891 26.8013652,30.150009 27.2013672,28.35 C27.5513689,26.7999923 28.1638628,25.125009 29.0388672,23.325 C29.9138716,21.524991 31.0013607,19.8875074 32.3013672,18.4125 C33.6013737,16.9374926 35.0763589,15.7750042 36.7263672,14.925 C38.3763754,14.0749957 40.1513577,13.849998 42.0513672,14.25 C44.4513792,14.8000027 46.1763619,15.8999917 47.2263672,17.55 C48.2763724,19.2000082 48.8138671,21.0499898 48.8388672,23.1 C48.8638673,25.1500102 48.4638713,27.2124896 47.6388672,29.2875 C46.8138631,31.3625104 45.7513737,33.0499935 44.4513672,34.35 C43.6013629,35.2000043 42.7013719,35.5500007 41.7513672,35.4 C40.8013624,35.2499992 40.0013704,34.8625031 39.3513672,34.2375 C38.7013639,33.6124969 38.3138678,32.8250048 38.1888672,31.875 C38.0638666,30.9249952 38.4263629,30.0250042 39.2763672,29.175 C40.0263709,28.4749965 40.6763644,27.5875054 41.2263672,26.5125 C41.7763699,25.4374946 41.9263684,24.3250058 41.6763672,23.175 C41.5263664,22.574997 41.3263684,22.1625011 41.0763672,21.9375 C40.8263659,21.7124989 40.5513687,21.6124999 40.2513672,21.6375 C39.9513657,21.6625001 39.6263689,21.7999987 39.2763672,22.05 C38.9263654,22.3000012 38.5763689,22.5749985 38.2263672,22.875 C36.8263602,24.1750065 35.7763707,25.6874914 35.0763672,27.4125 C34.3763637,29.1375086 33.9513679,30.9249908 33.8013672,32.775 C33.7513669,33.6750045 33.7388671,34.7374939 33.7638672,35.9625 C33.7888673,37.1875061 33.9138661,38.4124939 34.1388672,39.6375 C34.3638683,40.8625061 34.7263647,42.0124946 35.2263672,43.0875 C35.7263697,44.1625054 36.4013629,44.9749973 37.2513672,45.525 C38.2013719,46.125003 39.1263627,46.3375009 40.0263672,46.1625 C40.9263717,45.9874991 41.7888631,45.5875031 42.6138672,44.9625 C43.4388713,44.3374969 44.1763639,43.6125041 44.8263672,42.7875 C45.4763704,41.9624959 46.0263649,41.2000035 46.4763672,40.5 C47.0763702,39.499995 47.8638623,38.9500005 48.8388672,38.85 C49.8138721,38.7499995 50.6888633,38.9249977 51.4638672,39.375 C52.2388711,39.8250023 52.7888656,40.4874956 53.1138672,41.3625 C53.4388688,42.2375044 53.3013702,43.1499953 52.7013672,44.1 Z M65.6763672,46.275 C66.0763692,46.074999 66.4263657,45.7500022 66.7263672,45.3 C67.0263687,44.8499977 67.3013659,44.3625026 67.5513672,43.8375 C67.8013684,43.3124974 68.0263662,42.8000025 68.2263672,42.3 C68.4263682,41.7999975 68.6013664,41.350002 68.7513672,40.95 C69.1013689,39.9999952 69.4263657,39.0500047 69.7263672,38.1 C70.0263687,37.1499953 70.3013659,36.2000048 70.5513672,35.25 C71.1013699,33.049989 71.5138658,30.850011 71.7888672,28.65 C72.0638686,26.449989 71.9763694,24.2250113 71.5263672,21.975 C71.2763659,20.8749945 71.4513642,19.9375039 72.0513672,19.1625 C72.6513702,18.3874961 73.3888628,17.8750013 74.2638672,17.625 C75.1388716,17.3749987 76.0013629,17.4374981 76.8513672,17.8125 C77.7013714,18.1875019 78.2513659,18.9499942 78.5013672,20.1 C79.2013707,23.500017 79.3263694,26.899983 78.8763672,30.3 C78.4263649,33.700017 77.6763724,37.0249837 76.6263672,40.275 C76.2263652,41.5250062 75.7638698,42.8374931 75.2388672,44.2125 C74.7138646,45.5875069 74.0763709,46.9124936 73.3263672,48.1875 C72.5763634,49.4625064 71.7013722,50.5874951 70.7013672,51.5625 C69.7013622,52.5375049 68.5013742,53.2499977 67.1013672,53.7 C64.9513564,54.3500032 63.1513744,54.2625041 61.7013672,53.4375 C60.2513599,52.6124959 59.0888716,51.3375086 58.2138672,49.6125 C57.3388628,47.8874914 56.7138691,45.8625116 56.3388672,43.5375 C55.9638653,41.2124884 55.7263677,38.8875116 55.6263672,36.5625 C55.5263667,34.2374884 55.5263667,32.07501 55.6263672,30.075 C55.7263677,28.07499 55.8513664,26.5000058 56.0013672,25.35 C56.1513679,24.349995 56.5263642,23.4875036 57.1263672,22.7625 C57.7263702,22.0374964 58.5763617,21.675 59.6763672,21.675 C60.1263694,21.675 60.5763649,21.774999 61.0263672,21.975 C61.4763694,22.175001 61.8763654,22.4374984 62.2263672,22.7625 C62.5763689,23.0875016 62.8513662,23.4749978 63.0513672,23.925 C63.2513682,24.3750023 63.3263674,24.8499975 63.2763672,25.35 C62.6763642,29.8000222 62.6263647,34.1999783 63.1263672,38.55 C63.2263677,39.550005 63.3638663,40.5624949 63.5388672,41.5875 C63.7138681,42.6125051 63.9263659,43.624995 64.1763672,44.625 C64.3763682,45.2750032 64.5263667,45.799998 64.6263672,46.2 C64.7263677,46.600002 65.0763642,46.6250017 65.6763672,46.275 Z M89.6013672,28.8 C89.5513669,29.200002 89.5263672,29.5874981 89.5263672,29.9625 C89.5263672,30.3375019 89.5013674,30.724998 89.4513672,31.125 C89.4013669,31.9750042 89.3763672,32.8499955 89.3763672,33.75 L89.3763672,36.375 C89.4263674,38.2750095 89.5263664,40.1499907 89.6763672,42 C89.8263679,43.8500092 90.0763654,45.7249905 90.4263672,47.625 C90.6263682,48.7750057 90.4013704,49.7374961 89.7513672,50.5125 C89.1013639,51.2875039 88.3388716,51.7999987 87.4638672,52.05 C86.5888628,52.3000012 85.7388713,52.2375019 84.9138672,51.8625 C84.0888631,51.4874981 83.5763682,50.7250057 83.3763672,49.575 C82.9763652,47.0749875 82.6638683,44.6000123 82.4388672,42.15 C82.2138661,39.6999877 82.1013672,37.2000127 82.1013672,34.65 C82.1013672,33.3499935 82.1388668,32.0750063 82.2138672,30.825 C82.2888676,29.5749937 82.3763667,28.3250063 82.4763672,27.075 C82.5763677,26.1249952 82.7013664,25.2375041 82.8513672,24.4125 C83.0013679,23.5874959 83.4263637,22.8250035 84.1263672,22.125 C84.6763699,21.5749972 85.3763629,21.2125009 86.2263672,21.0375 C87.0763714,20.8624991 87.8263639,21.0249975 88.4763672,21.525 C88.5263674,21.5750002 88.5763669,21.6124999 88.6263672,21.6375 C88.6763674,21.6625001 88.7263669,21.6999998 88.7763672,21.75 C89.5763712,22.350003 90.1263657,23.0874956 90.4263672,23.9625 C90.7263687,24.8375044 90.6013699,25.7499952 90.0513672,26.7 C90.0513672,26.7500002 90.0013677,26.8249995 89.9013672,26.925 C89.9013672,27.0250005 89.8513677,27.1249995 89.7513672,27.225 C89.7013669,27.4750012 89.6763672,27.7374986 89.6763672,28.0125 C89.6763672,28.2875014 89.6513674,28.5499987 89.6013672,28.8 Z M87.1263672,14.7 C85.9763614,14.7 85.1013702,14.3250038 84.5013672,13.575 C83.9013642,12.8249962 83.6013672,11.9875046 83.6013672,11.0625 C83.6013672,10.1374954 83.9013642,9.30000375 84.5013672,8.55 C85.1013702,7.79999625 85.9763614,7.425 87.1263672,7.425 C88.2763729,7.425 89.1388643,7.79999625 89.7138672,8.55 C90.2888701,9.30000375 90.5763672,10.1374954 90.5763672,11.0625 C90.5763672,11.9875046 90.2888701,12.8249962 89.7138672,13.575 C89.1388643,14.3250038 88.2763729,14.7 87.1263672,14.7 Z M117.876367,7.275 C118.276369,6.32499525 118.913863,5.750001 119.788867,5.55 C120.663872,5.349999 121.501363,5.42499825 122.301367,5.775 C123.101371,6.12500175 123.751365,6.68749612 124.251367,7.4625 C124.75137,8.23750388 124.851369,9.09999525 124.551367,10.05 C123.851364,12.3000112 123.138871,14.5499888 122.413867,16.8 C121.688864,19.0500113 120.951371,21.2999888 120.201367,23.55 C119.101362,28.8500265 118.613867,34.1874731 118.738867,39.5625 C118.863868,44.9375269 119.62636,50.2499737 121.026367,55.5 C121.326369,56.6500057 121.18887,57.5999963 120.613867,58.35 C120.038864,59.1000037 119.301372,59.5999987 118.401367,59.85 C117.501363,60.1000012 116.613872,60.0500017 115.738867,59.7 C114.863863,59.3499982 114.276369,58.6000057 113.976367,57.45 C113.476365,55.44999 113.051369,53.4750097 112.701367,51.525 C112.351365,49.5749902 112.076368,47.60001 111.876367,45.6 C111.176364,47.000007 110.326372,48.2874941 109.326367,49.4625 C108.326362,50.6375059 107.101374,51.4999972 105.651367,52.05 C104.551362,52.450002 103.513872,52.5875006 102.538867,52.4625 C101.563862,52.3374994 100.663871,52.0375024 99.8388672,51.5625 C99.0138631,51.0874976 98.2763704,50.450004 97.6263672,49.65 C96.9763639,48.849996 96.4513692,47.950005 96.0513672,46.95 C95.2013629,44.8999897 94.6263687,42.7500113 94.3263672,40.5 C94.0263657,38.2499887 94.0013659,36.0125111 94.2513672,33.7875 C94.5013684,31.5624889 95.0138633,29.3750107 95.7888672,27.225 C96.5638711,25.0749892 97.5513612,23.100009 98.7513672,21.3 C99.3513702,20.3999955 100.001364,19.5625039 100.701367,18.7875 C101.401371,18.0124961 102.176363,17.3625026 103.026367,16.8375 C103.876371,16.3124974 104.788862,15.9750007 105.763867,15.825 C106.738872,15.6749992 107.801361,15.7749983 108.951367,16.125 C110.101373,16.4750017 111.038864,16.9874966 111.763867,17.6625 C112.488871,18.3375034 113.101365,19.0999958 113.601367,19.95 C113.651367,19.8499995 113.688867,19.7625004 113.713867,19.6875 C113.738867,19.6124996 113.776367,19.5250005 113.826367,19.425 C114.32637,17.5249905 114.876364,15.6375094 115.476367,13.7625 C116.07637,11.8874906 116.751363,10.0250092 117.501367,8.175 L117.576367,8.1 L117.726367,7.65 C117.776367,7.49999925 117.826367,7.3750005 117.876367,7.275 Z M107.901367,36.45 C108.301369,35.449995 108.676365,34.4375051 109.026367,33.4125 C109.376369,32.3874949 109.726365,31.375005 110.076367,30.375 C109.076362,29.774997 108.501368,28.8250065 108.351367,27.525 C108.351367,27.2749988 108.326367,26.9250022 108.276367,26.475 C108.226367,26.0249977 108.163868,25.5750022 108.088867,25.125 C108.013867,24.6749977 107.876368,24.250002 107.676367,23.85 C107.476366,23.449998 107.226369,23.2000005 106.926367,23.1 C106.526365,22.9999995 106.163869,23.2124974 105.838867,23.7375 C105.513866,24.2625026 105.226368,24.6749985 104.976367,24.975 C104.226363,26.1250057 103.60137,27.3124939 103.101367,28.5375 C102.601365,29.7625061 102.201369,31.0249935 101.901367,32.325 C101.301364,34.8250125 101.201365,37.4499862 101.601367,40.2 C101.701368,40.9000035 101.838866,41.5749967 102.013867,42.225 C102.188868,42.8750032 102.401366,43.5249967 102.651367,44.175 C102.901368,44.7250027 103.051367,45.0249998 103.101367,45.075 C103.151367,45.1250002 103.376365,45.0250013 103.776367,44.775 C104.27637,44.4249982 104.738865,43.9000035 105.163867,43.2 C105.588869,42.4999965 105.976365,41.750004 106.326367,40.95 C106.676369,40.149996 106.976366,39.3375041 107.226367,38.5125 C107.476368,37.6874959 107.701366,37.0000027 107.901367,36.45 Z M142.176367,53.85 C141.626364,51.5499885 141.238868,49.2625114 141.013867,46.9875 C140.788866,44.7124886 140.701367,42.4250115 140.751367,40.125 C140.051364,41.2750057 139.326371,42.3874946 138.576367,43.4625 C137.826363,44.5375054 137.001372,45.574995 136.101367,46.575 C135.551364,47.175003 134.95137,47.7874969 134.301367,48.4125 C133.651364,49.0375031 132.963871,49.6374971 132.238867,50.2125 C131.513864,50.7875029 130.751371,51.274998 129.951367,51.675 C129.151363,52.075002 128.351371,52.2999997 127.551367,52.35 C126.351361,52.4500005 125.376371,52.2625024 124.626367,51.7875 C123.876363,51.3124976 123.301369,50.675004 122.901367,49.875 C122.501365,49.074996 122.226368,48.175005 122.076367,47.175 C121.926366,46.174995 121.851367,45.2250045 121.851367,44.325 C121.851367,42.4249905 122.101365,40.4875099 122.601367,38.5125 C123.10137,36.5374901 123.776363,34.6125094 124.626367,32.7375 C125.476371,30.8624906 126.488861,29.1000082 127.663867,27.45 C128.838873,25.7999918 130.12636,24.3500062 131.526367,23.1 C132.526372,22.1999955 133.601361,21.5375021 134.751367,21.1125 C135.901373,20.6874979 137.051361,20.475 138.201367,20.475 C139.351367,20.475 140.451362,20.6624981 141.501367,21.0375 C142.551372,21.4125019 143.501363,21.9749963 144.351367,22.725 C144.90137,22.5749992 145.476364,22.5499995 146.076367,22.65 C146.67637,22.7500005 147.213865,22.9624984 147.688867,23.2875 C148.16387,23.6125016 148.538866,24.0374974 148.813867,24.5625 C149.088869,25.0875026 149.201367,25.649997 149.151367,26.25 C148.901366,28.3500105 148.663868,30.4749892 148.438867,32.625 C148.213866,34.7750107 148.063868,36.9249893 147.988867,39.075 C147.913867,41.2250107 147.963866,43.3749892 148.138867,45.525 C148.313868,47.6750108 148.676364,49.7999895 149.226367,51.9 C149.526369,53.0500057 149.37637,54.0124961 148.776367,54.7875 C148.176364,55.5625039 147.438872,56.0624989 146.563867,56.2875 C145.688863,56.5125011 144.813872,56.4500018 143.938867,56.1 C143.063863,55.7499982 142.476369,55.0000057 142.176367,53.85 Z M135.051367,35.625 C135.851371,34.3749937 136.613864,33.1375061 137.338867,31.9125 C138.063871,30.6874939 138.826363,29.475006 139.626367,28.275 C139.326366,27.8249978 138.90137,27.6124999 138.351367,27.6375 C137.801364,27.6625001 137.25137,27.874998 136.701367,28.275 C135.851363,28.875003 135.10137,29.6624951 134.451367,30.6375 C133.801364,31.6125049 133.20137,32.5249957 132.651367,33.375 C132.051364,34.4250052 131.50137,35.4874946 131.001367,36.5625 C130.501365,37.6375054 130.076369,38.7499942 129.726367,39.9 C129.626367,40.2000015 129.488868,40.7249963 129.313867,41.475 C129.138866,42.2250037 129.001368,42.9499965 128.901367,43.65 C129.351369,43.249998 129.788865,42.8000025 130.213867,42.3 C130.638869,41.7999975 130.976366,41.4000015 131.226367,41.1 C131.976371,40.2499957 132.663864,39.3625046 133.288867,38.4375 C133.91387,37.5124954 134.501364,36.5750048 135.051367,35.625 Z M175.476367,7.275 C175.876369,6.32499525 176.513863,5.750001 177.388867,5.55 C178.263872,5.349999 179.101363,5.42499825 179.901367,5.775 C180.701371,6.12500175 181.351365,6.68749612 181.851367,7.4625 C182.35137,8.23750388 182.451369,9.09999525 182.151367,10.05 C181.451364,12.3000112 180.738871,14.5499888 180.013867,16.8 C179.288864,19.0500113 178.551371,21.2999888 177.801367,23.55 C176.701362,28.8500265 176.213867,34.1874731 176.338867,39.5625 C176.463868,44.9375269 177.22636,50.2499737 178.626367,55.5 C178.926369,56.6500057 178.78887,57.5999963 178.213867,58.35 C177.638864,59.1000037 176.901372,59.5999987 176.001367,59.85 C175.101363,60.1000012 174.213872,60.0500017 173.338867,59.7 C172.463863,59.3499982 171.876369,58.6000057 171.576367,57.45 C171.076365,55.44999 170.651369,53.4750097 170.301367,51.525 C169.951365,49.5749902 169.676368,47.60001 169.476367,45.6 C168.776364,47.000007 167.926372,48.2874941 166.926367,49.4625 C165.926362,50.6375059 164.701374,51.4999972 163.251367,52.05 C162.151362,52.450002 161.113872,52.5875006 160.138867,52.4625 C159.163862,52.3374994 158.263871,52.0375024 157.438867,51.5625 C156.613863,51.0874976 155.87637,50.450004 155.226367,49.65 C154.576364,48.849996 154.051369,47.950005 153.651367,46.95 C152.801363,44.8999897 152.226369,42.7500113 151.926367,40.5 C151.626366,38.2499887 151.601366,36.0125111 151.851367,33.7875 C152.101368,31.5624889 152.613863,29.3750107 153.388867,27.225 C154.163871,25.0749892 155.151361,23.100009 156.351367,21.3 C156.95137,20.3999955 157.601364,19.5625039 158.301367,18.7875 C159.001371,18.0124961 159.776363,17.3625026 160.626367,16.8375 C161.476371,16.3124974 162.388862,15.9750007 163.363867,15.825 C164.338872,15.6749992 165.401361,15.7749983 166.551367,16.125 C167.701373,16.4750017 168.638864,16.9874966 169.363867,17.6625 C170.088871,18.3375034 170.701365,19.0999958 171.201367,19.95 C171.251367,19.8499995 171.288867,19.7625004 171.313867,19.6875 C171.338867,19.6124996 171.376367,19.5250005 171.426367,19.425 C171.92637,17.5249905 172.476364,15.6375094 173.076367,13.7625 C173.67637,11.8874906 174.351363,10.0250092 175.101367,8.175 L175.176367,8.1 L175.326367,7.65 C175.376367,7.49999925 175.426367,7.3750005 175.476367,7.275 Z M165.501367,36.45 C165.901369,35.449995 166.276365,34.4375051 166.626367,33.4125 C166.976369,32.3874949 167.326365,31.375005 167.676367,30.375 C166.676362,29.774997 166.101368,28.8250065 165.951367,27.525 C165.951367,27.2749988 165.926367,26.9250022 165.876367,26.475 C165.826367,26.0249977 165.763868,25.5750022 165.688867,25.125 C165.613867,24.6749977 165.476368,24.250002 165.276367,23.85 C165.076366,23.449998 164.826369,23.2000005 164.526367,23.1 C164.126365,22.9999995 163.763869,23.2124974 163.438867,23.7375 C163.113866,24.2625026 162.826368,24.6749985 162.576367,24.975 C161.826363,26.1250057 161.20137,27.3124939 160.701367,28.5375 C160.201365,29.7625061 159.801369,31.0249935 159.501367,32.325 C158.901364,34.8250125 158.801365,37.4499862 159.201367,40.2 C159.301368,40.9000035 159.438866,41.5749967 159.613867,42.225 C159.788868,42.8750032 160.001366,43.5249967 160.251367,44.175 C160.501368,44.7250027 160.651367,45.0249998 160.701367,45.075 C160.751367,45.1250002 160.976365,45.0250013 161.376367,44.775 C161.87637,44.4249982 162.338865,43.9000035 162.763867,43.2 C163.188869,42.4999965 163.576365,41.750004 163.926367,40.95 C164.276369,40.149996 164.576366,39.3375041 164.826367,38.5125 C165.076368,37.6874959 165.301366,37.0000027 165.501367,36.45 Z M183.351367,49.425 C182.051361,48.2749943 181.12637,46.9125079 180.576367,45.3375 C180.026364,43.7624921 179.676368,42.175008 179.526367,40.575 C179.326366,38.4749895 179.351366,36.3875104 179.601367,34.3125 C179.851368,32.2374896 180.301364,30.2500095 180.951367,28.35 C181.55137,26.549991 182.326362,24.6625099 183.276367,22.6875 C184.226372,20.7124901 185.42636,19.125006 186.876367,17.925 C188.426375,16.6749937 190.126358,16.1999985 191.976367,16.5 C193.826376,16.8000015 195.351361,17.6749927 196.551367,19.125 C197.301371,19.9750042 197.838866,20.899995 198.163867,21.9 C198.488869,22.900005 198.626367,23.9249947 198.576367,24.975 C199.376371,25.375002 199.926366,26.0499952 200.226367,27 C201.026371,29.1000105 201.376368,31.2624889 201.276367,33.4875 C201.176367,35.7125111 200.776371,37.8999892 200.076367,40.05 C199.426364,41.850009 198.613872,43.6624909 197.638867,45.4875 C196.663862,47.3125091 195.351375,48.7999942 193.701367,49.95 C192.101359,51.0000053 190.338877,51.5000002 188.413867,51.45 C186.488858,51.3999998 184.801374,50.7250065 183.351367,49.425 Z M188.151367,29.775 C187.501364,31.5250087 187.026369,33.3749902 186.726367,35.325 C186.426366,37.2750097 186.476365,39.1999905 186.876367,41.1 C186.926367,41.3500012 186.988867,41.6374984 187.063867,41.9625 C187.138868,42.2875016 187.238867,42.6124984 187.363867,42.9375 C187.488868,43.2625016 187.663866,43.5499987 187.888867,43.8 C188.113868,44.0500012 188.376366,44.1999998 188.676367,44.25 C189.026369,44.3000002 189.376365,44.2000012 189.726367,43.95 C190.076369,43.6999988 190.388866,43.4000018 190.663867,43.05 C190.938869,42.6999982 191.176366,42.325002 191.376367,41.925 C191.576368,41.524998 191.751366,41.2000012 191.901367,40.95 C192.701371,39.349992 193.301365,37.6750088 193.701367,35.925 C194.101369,34.1749913 194.126369,32.4250088 193.776367,30.675 C192.726362,30.4249987 191.87637,29.7875051 191.226367,28.7625 C190.576364,27.7374949 190.576364,26.6000062 191.226367,25.35 C191.426368,24.9999982 191.476368,24.7500007 191.376367,24.6 C191.276367,24.4499992 191.201367,24.2250015 191.151367,23.925 C191.051367,24.0250005 190.951368,24.174999 190.851367,24.375 C190.401365,25.2750045 189.92637,26.1499957 189.426367,27 C188.926365,27.8500042 188.501369,28.774995 188.151367,29.775 Z M226.326367,52.5 C224.576358,51.899997 223.226372,50.9750062 222.276367,49.725 C221.326362,48.4749938 220.638869,47.0750077 220.213867,45.525 C219.788865,43.9749922 219.576367,42.3500085 219.576367,40.65 C219.576367,38.9499915 219.701366,37.3500075 219.951367,35.85 C220.151368,34.3999927 220.513865,32.8125086 221.038867,31.0875 C221.56387,29.3624914 222.238863,27.700008 223.063867,26.1 C223.888871,24.499992 224.876361,23.0375066 226.026367,21.7125 C227.176373,20.3874934 228.47636,19.4000032 229.926367,18.75 C231.276374,18.149997 232.70136,18.0249983 234.201367,18.375 C235.701375,18.7250017 237.001362,19.399995 238.101367,20.4 C239.501374,21.6500062 240.413865,23.1249915 240.838867,24.825 C241.263869,26.5250085 241.576366,28.2499912 241.776367,30 C241.926368,31.1500057 241.651371,32.024997 240.951367,32.625 C240.251364,33.225003 239.451372,33.525 238.551367,33.525 C237.651363,33.525 236.788871,33.225003 235.963867,32.625 C235.138863,32.024997 234.651368,31.1500057 234.501367,30 C234.501367,29.8499992 234.476367,29.5125026 234.426367,28.9875 C234.376367,28.4624974 234.288868,27.9375026 234.163867,27.4125 C234.038867,26.8874974 233.863868,26.4125021 233.638867,25.9875 C233.413866,25.5624979 233.126369,25.3749997 232.776367,25.425 C232.576366,25.425 232.351368,25.5624986 232.101367,25.8375 C231.851366,26.1125014 231.601368,26.4249982 231.351367,26.775 C231.101366,27.1250017 230.876368,27.4749982 230.676367,27.825 C230.476366,28.1750017 230.326368,28.4249992 230.226367,28.575 C229.276362,30.1250078 228.50137,31.7624914 227.901367,33.4875 C227.301364,35.2125086 226.951368,36.974991 226.851367,38.775 C226.801367,39.4750035 226.776367,40.2499957 226.776367,41.1 C226.776367,41.9500043 226.888866,42.7374964 227.113867,43.4625 C227.338868,44.1875036 227.701365,44.7874976 228.201367,45.2625 C228.70137,45.7375024 229.451362,45.9500002 230.451367,45.9 C231.301371,45.8499997 232.088864,45.6125021 232.813867,45.1875 C233.538871,44.7624979 234.226364,44.250003 234.876367,43.65 C235.52637,43.049997 236.126364,42.4125034 236.676367,41.7375 C237.22637,41.0624966 237.751365,40.425003 238.251367,39.825 C239.001371,38.9249955 239.838863,38.5249995 240.763867,38.625 C241.688872,38.7250005 242.476364,39.0999968 243.126367,39.75 C243.77637,40.4000032 244.176366,41.2124951 244.326367,42.1875 C244.476368,43.1625049 244.176371,44.0999955 243.426367,45 C242.376362,46.2500063 241.213874,47.4499942 239.938867,48.6 C238.663861,49.7500057 237.313874,50.724996 235.888867,51.525 C234.46386,52.325004 232.951375,52.8374989 231.351367,53.0625 C229.751359,53.2875011 228.076376,53.100003 226.326367,52.5 Z M249.876367,49.425 C248.576361,48.2749943 247.65137,46.9125079 247.101367,45.3375 C246.551364,43.7624921 246.201368,42.175008 246.051367,40.575 C245.851366,38.4749895 245.876366,36.3875104 246.126367,34.3125 C246.376368,32.2374896 246.826364,30.2500095 247.476367,28.35 C248.07637,26.549991 248.851362,24.6625099 249.801367,22.6875 C250.751372,20.7124901 251.95136,19.125006 253.401367,17.925 C254.951375,16.6749937 256.651358,16.1999985 258.501367,16.5 C260.351376,16.8000015 261.876361,17.6749927 263.076367,19.125 C263.826371,19.9750042 264.363866,20.899995 264.688867,21.9 C265.013869,22.900005 265.151367,23.9249947 265.101367,24.975 C265.901371,25.375002 266.451366,26.0499952 266.751367,27 C267.551371,29.1000105 267.901368,31.2624889 267.801367,33.4875 C267.701367,35.7125111 267.301371,37.8999892 266.601367,40.05 C265.951364,41.850009 265.138872,43.6624909 264.163867,45.4875 C263.188862,47.3125091 261.876375,48.7999942 260.226367,49.95 C258.626359,51.0000053 256.863877,51.5000002 254.938867,51.45 C253.013858,51.3999998 251.326374,50.7250065 249.876367,49.425 Z M254.676367,29.775 C254.026364,31.5250087 253.551369,33.3749902 253.251367,35.325 C252.951366,37.2750097 253.001365,39.1999905 253.401367,41.1 C253.451367,41.3500012 253.513867,41.6374984 253.588867,41.9625 C253.663868,42.2875016 253.763867,42.6124984 253.888867,42.9375 C254.013868,43.2625016 254.188866,43.5499987 254.413867,43.8 C254.638868,44.0500012 254.901366,44.1999998 255.201367,44.25 C255.551369,44.3000002 255.901365,44.2000012 256.251367,43.95 C256.601369,43.6999988 256.913866,43.4000018 257.188867,43.05 C257.463869,42.6999982 257.701366,42.325002 257.901367,41.925 C258.101368,41.524998 258.276366,41.2000012 258.426367,40.95 C259.226371,39.349992 259.826365,37.6750088 260.226367,35.925 C260.626369,34.1749913 260.651369,32.4250088 260.301367,30.675 C259.251362,30.4249987 258.40137,29.7875051 257.751367,28.7625 C257.101364,27.7374949 257.101364,26.6000062 257.751367,25.35 C257.951368,24.9999982 258.001368,24.7500007 257.901367,24.6 C257.801367,24.4499992 257.726367,24.2250015 257.676367,23.925 C257.576367,24.0250005 257.476368,24.174999 257.376367,24.375 C256.926365,25.2750045 256.45137,26.1499957 255.951367,27 C255.451365,27.8500042 255.026369,28.774995 254.676367,29.775 Z M278.451367,50.025 C278.201366,51.0750053 277.701371,51.799998 276.951367,52.2 C276.201363,52.600002 275.426371,52.7250007 274.626367,52.575 C273.826363,52.4249992 273.088871,52.050003 272.413867,51.45 C271.738864,50.849997 271.376367,50.050005 271.326367,49.05 C270.976365,44.7999787 270.763868,40.5500212 270.688867,36.3 C270.613867,32.0499787 270.701366,27.8000212 270.951367,23.55 C271.001367,22.3999942 271.426363,21.5375029 272.226367,20.9625 C273.026371,20.3874971 273.876363,20.1 274.776367,20.1 C275.676372,20.1 276.488864,20.3874971 277.213867,20.9625 C277.938871,21.5375029 278.276367,22.3999942 278.226367,23.55 C278.126367,25.150008 278.063867,26.7124924 278.038867,28.2375 C278.013867,29.7625076 277.976367,31.324992 277.926367,32.925 C278.42637,32.124996 279.001364,31.325004 279.651367,30.525 C280.351371,29.5749952 281.251362,28.4250068 282.351367,27.075 C283.451373,25.7249933 284.651361,24.550005 285.951367,23.55 C287.251374,22.549995 288.60136,21.9125014 290.001367,21.6375 C291.401374,21.3624986 292.77636,21.7999942 294.126367,22.95 C295.026372,23.7000038 295.688865,24.6249945 296.113867,25.725 C296.538869,26.8250055 296.826366,27.9874939 296.976367,29.2125 C297.126368,30.4375061 297.176367,31.6749937 297.126367,32.925 C297.076367,34.1750062 297.026367,35.3249947 296.976367,36.375 C296.876367,38.775012 296.688869,41.1874879 296.413867,43.6125 C296.138866,46.0375121 295.72637,48.449988 295.176367,50.85 C294.926366,52.0000057 294.376371,52.7624981 293.526367,53.1375 C292.676363,53.5125019 291.813872,53.5750012 290.938867,53.325 C290.063863,53.0749988 289.32637,52.5750038 288.726367,51.825 C288.126364,51.0749962 287.951366,50.1250057 288.201367,48.975 C288.85137,45.774984 289.301366,42.5250165 289.551367,39.225 C289.651368,37.7749927 289.763867,36.2625079 289.888867,34.6875 C290.013868,33.1124921 289.951368,31.6000072 289.701367,30.15 C289.301365,30.550002 288.913869,30.9249982 288.538867,31.275 C288.163865,31.6250017 287.926368,31.8499995 287.826367,31.95 C287.026363,32.8000042 286.288871,33.6749955 285.613867,34.575 C284.938864,35.4750045 284.27637,36.424995 283.626367,37.425 C281.226355,41.3250195 279.501372,45.5249775 278.451367,50.025 Z M319.326367,3.45 C319.426368,2.29999425 319.888863,1.43750288 320.713867,0.8625 C321.538871,0.287497125 322.401363,0 323.301367,0 C324.201372,0 325.001364,0.287497125 325.701367,0.8625 C326.401371,1.43750288 326.701368,2.29999425 326.601367,3.45 C325.901364,11.1500385 325.413869,18.799962 325.138867,26.4 C324.863866,34.000038 324.776367,41.6749612 324.876367,49.425 C324.876367,50.5750058 324.513871,51.449997 323.788867,52.05 C323.063864,52.650003 322.251372,52.95 321.351367,52.95 C320.451363,52.95 319.613871,52.650003 318.838867,52.05 C318.063863,51.449997 317.676367,50.5750058 317.676367,49.425 C317.526366,41.6749612 317.588866,34.000038 317.863867,26.4 C318.138869,18.799962 318.626364,11.1500385 319.326367,3.45 Z M330.651367,49.425 C329.351361,48.2749943 328.42637,46.9125079 327.876367,45.3375 C327.326364,43.7624921 326.976368,42.175008 326.826367,40.575 C326.626366,38.4749895 326.651366,36.3875104 326.901367,34.3125 C327.151368,32.2374896 327.601364,30.2500095 328.251367,28.35 C328.85137,26.549991 329.626362,24.6625099 330.576367,22.6875 C331.526372,20.7124901 332.72636,19.125006 334.176367,17.925 C335.726375,16.6749937 337.426358,16.1999985 339.276367,16.5 C341.126376,16.8000015 342.651361,17.6749927 343.851367,19.125 C344.601371,19.9750042 345.138866,20.899995 345.463867,21.9 C345.788869,22.900005 345.926367,23.9249947 345.876367,24.975 C346.676371,25.375002 347.226366,26.0499952 347.526367,27 C348.326371,29.1000105 348.676368,31.2624889 348.576367,33.4875 C348.476367,35.7125111 348.076371,37.8999892 347.376367,40.05 C346.726364,41.850009 345.913872,43.6624909 344.938867,45.4875 C343.963862,47.3125091 342.651375,48.7999942 341.001367,49.95 C339.401359,51.0000053 337.638877,51.5000002 335.713867,51.45 C333.788858,51.3999998 332.101374,50.7250065 330.651367,49.425 Z M335.451367,29.775 C334.801364,31.5250087 334.326369,33.3749902 334.026367,35.325 C333.726366,37.2750097 333.776365,39.1999905 334.176367,41.1 C334.226367,41.3500012 334.288867,41.6374984 334.363867,41.9625 C334.438868,42.2875016 334.538867,42.6124984 334.663867,42.9375 C334.788868,43.2625016 334.963866,43.5499987 335.188867,43.8 C335.413868,44.0500012 335.676366,44.1999998 335.976367,44.25 C336.326369,44.3000002 336.676365,44.2000012 337.026367,43.95 C337.376369,43.6999988 337.688866,43.4000018 337.963867,43.05 C338.238869,42.6999982 338.476366,42.325002 338.676367,41.925 C338.876368,41.524998 339.051366,41.2000012 339.201367,40.95 C340.001371,39.349992 340.601365,37.6750088 341.001367,35.925 C341.401369,34.1749913 341.426369,32.4250088 341.076367,30.675 C340.026362,30.4249987 339.17637,29.7875051 338.526367,28.7625 C337.876364,27.7374949 337.876364,26.6000062 338.526367,25.35 C338.726368,24.9999982 338.776368,24.7500007 338.676367,24.6 C338.576367,24.4499992 338.501367,24.2250015 338.451367,23.925 C338.351367,24.0250005 338.251368,24.174999 338.151367,24.375 C337.701365,25.2750045 337.22637,26.1499957 336.726367,27 C336.226365,27.8500042 335.801369,28.774995 335.451367,29.775 Z M357.501367,42.45 C355.251356,41.1499935 353.626372,39.4375106 352.626367,37.3125 C351.626362,35.1874894 351.401364,32.8500127 351.951367,30.3 C352.201368,29.0499937 352.651364,27.8500057 353.301367,26.7 C353.95137,25.5499942 354.738863,24.5125046 355.663867,23.5875 C356.588872,22.6624954 357.626361,21.900003 358.776367,21.3 C359.926373,20.699997 361.151361,20.3250008 362.451367,20.175 C363.751374,20.0249993 364.976361,20.149998 366.126367,20.55 C367.276373,20.950002 368.288863,21.5374961 369.163867,22.3125 C370.038872,23.0875039 370.751364,24.0249945 371.301367,25.125 C371.85137,26.2250055 372.176367,27.3999937 372.276367,28.65 C372.376368,29.8000057 372.063871,30.674997 371.338867,31.275 C370.613864,31.875003 369.801372,32.175 368.901367,32.175 C368.001363,32.175 367.151371,31.875003 366.351367,31.275 C365.551363,30.674997 365.101368,29.8000057 365.001367,28.65 C364.951367,27.8999963 364.701369,27.4750005 364.251367,27.375 C363.801365,27.2749995 363.30137,27.3374989 362.751367,27.5625 C362.201364,27.7875011 361.66387,28.1124979 361.138867,28.5375 C360.613865,28.9625021 360.251368,29.2999987 360.051367,29.55 C359.501364,30.2500035 359.113868,31.0874951 358.888867,32.0625 C358.663866,33.0375049 358.826364,33.924996 359.376367,34.725 C359.87637,35.525004 360.626362,36.124998 361.626367,36.525 C362.626372,36.925002 363.526363,37.324998 364.326367,37.725 C365.326372,38.2750027 366.276363,38.849997 367.176367,39.45 C368.076372,40.050003 368.801364,40.849995 369.351367,41.85 C369.95137,42.9000052 370.263867,43.9624946 370.288867,45.0375 C370.313867,46.1125054 370.101369,47.1249952 369.651367,48.075 C369.201365,49.0250047 368.588871,49.899996 367.813867,50.7 C367.038863,51.500004 366.176372,52.1499975 365.226367,52.65 C364.226362,53.2000028 363.163873,53.6249985 362.038867,53.925 C360.913862,54.2250015 359.788873,54.3999998 358.663867,54.45 C357.538862,54.5000002 356.413873,54.3875014 355.288867,54.1125 C354.163862,53.8374986 353.126372,53.3750033 352.176367,52.725 C351.176362,52.0749967 350.626368,51.2625049 350.526367,50.2875 C350.426367,49.3124951 350.601365,48.425004 351.051367,47.625 C351.501369,46.824996 352.163863,46.2625016 353.038867,45.9375 C353.913872,45.6124984 354.851362,45.7749968 355.851367,46.425 C356.40137,46.825002 356.951364,47.0624996 357.501367,47.1375 C358.05137,47.2125004 358.676364,47.2000005 359.376367,47.1 C359.526368,47.0499997 359.813865,46.9750005 360.238867,46.875 C360.663869,46.7749995 361.088865,46.6375009 361.513867,46.4625 C361.938869,46.2874991 362.313866,46.100001 362.638867,45.9 C362.963869,45.699999 363.101367,45.500001 363.051367,45.3 C363.001367,45.099999 362.72637,44.8625014 362.226367,44.5875 C361.726365,44.3124986 361.16387,44.0375014 360.538867,43.7625 C359.913864,43.4874986 359.30137,43.2250012 358.701367,42.975 C358.101364,42.7249987 357.701368,42.5500005 357.501367,42.45 Z M415.476367,30.675 C416.176371,29.9249962 416.926363,29.1375041 417.726367,28.3125 C418.526371,27.4874959 419.376363,26.6875039 420.276367,25.9125 C421.176372,25.1374961 422.101362,24.450003 423.051367,23.85 C424.001372,23.249997 424.976362,22.8000015 425.976367,22.5 C427.876377,21.9499972 429.363862,22.0499962 430.438867,22.8 C431.513873,23.5500037 432.301365,24.6749925 432.801367,26.175 C433.30137,27.6750075 433.563867,29.4374899 433.588867,31.4625 C433.613867,33.4875101 433.526368,35.4874901 433.326367,37.4625 C433.126366,39.4375099 432.876369,41.2499917 432.576367,42.9 C432.276366,44.5500082 432.051368,45.774996 431.901367,46.575 C431.651366,47.7250057 431.101371,48.4874981 430.251367,48.8625 C429.401363,49.2375019 428.538872,49.3000012 427.663867,49.05 C426.788863,48.7999987 426.05137,48.2875039 425.451367,47.5125 C424.851364,46.7374961 424.676366,45.7750057 424.926367,44.625 C425.726371,40.824981 426.176367,36.92502 426.276367,32.925 C426.276367,32.7749993 426.251367,32.500002 426.201367,32.1 C426.151367,31.699998 426.101367,31.2750023 426.051367,30.825 C425.601365,31.1250015 425.176369,31.474998 424.776367,31.875 C422.226354,33.9750105 420.013877,36.2999873 418.138867,38.85 C416.263858,41.4000127 414.601374,44.1249855 413.151367,47.025 C412.751365,47.825004 412.151371,48.3499987 411.351367,48.6 C410.551363,48.8500012 409.763871,48.875001 408.988867,48.675 C408.213863,48.474999 407.56387,48.075003 407.038867,47.475 C406.513865,46.874997 406.301367,46.1250045 406.401367,45.225 C406.651368,43.0749892 406.888866,40.9375106 407.113867,38.8125 C407.338868,36.6874894 407.576366,34.5500108 407.826367,32.4 C407.826367,32.2999995 407.838867,32.1250012 407.863867,31.875 C407.888867,31.6249987 407.926367,31.300002 407.976367,30.9 C405.776356,33.6500137 403.976374,36.624984 402.576367,39.825 C401.17636,43.025016 400.101371,46.324983 399.351367,49.725 C399.151366,50.5750043 398.701371,51.2124979 398.001367,51.6375 C397.301364,52.0625021 396.551371,52.2874999 395.751367,52.3125 C394.951363,52.3375001 394.213871,52.1375021 393.538867,51.7125 C392.863864,51.2874979 392.451368,50.6250045 392.301367,49.725 C391.901365,47.124987 391.688867,44.4750135 391.663867,41.775 C391.638867,39.0749865 391.713866,36.3875134 391.888867,33.7125 C392.063868,31.0374866 392.301366,28.3625134 392.601367,25.6875 C392.901369,23.0124866 393.151366,20.3500133 393.351367,17.7 C393.451368,16.5499942 393.901363,15.6875029 394.701367,15.1125 C395.501371,14.5374971 396.351363,14.25 397.251367,14.25 C398.151372,14.25 398.963864,14.5374971 399.688867,15.1125 C400.413871,15.6875029 400.726368,16.5499942 400.626367,17.7 C400.476366,19.8000105 400.313868,21.8624899 400.138867,23.8875 C399.963866,25.9125101 399.801368,27.9499897 399.651367,30 C400.651372,28.399992 401.738861,26.8375076 402.913867,25.3125 C404.088873,23.7874924 405.40136,22.525005 406.851367,21.525 C408.001373,20.7749963 409.113862,20.3875001 410.188867,20.3625 C411.263873,20.3374999 412.213863,20.6124971 413.038867,21.1875 C413.863871,21.7625029 414.513865,22.5624949 414.988867,23.5875 C415.46387,24.6125051 415.701367,25.7499937 415.701367,27 C415.701367,28.200006 415.626368,29.4249937 415.476367,30.675 Z M440.226367,49.425 C438.926361,48.2749943 438.00137,46.9125079 437.451367,45.3375 C436.901364,43.7624921 436.551368,42.175008 436.401367,40.575 C436.201366,38.4749895 436.226366,36.3875104 436.476367,34.3125 C436.726368,32.2374896 437.176364,30.2500095 437.826367,28.35 C438.42637,26.549991 439.201362,24.6625099 440.151367,22.6875 C441.101372,20.7124901 442.30136,19.125006 443.751367,17.925 C445.301375,16.6749937 447.001358,16.1999985 448.851367,16.5 C450.701376,16.8000015 452.226361,17.6749927 453.426367,19.125 C454.176371,19.9750042 454.713866,20.899995 455.038867,21.9 C455.363869,22.900005 455.501367,23.9249947 455.451367,24.975 C456.251371,25.375002 456.801366,26.0499952 457.101367,27 C457.901371,29.1000105 458.251368,31.2624889 458.151367,33.4875 C458.051367,35.7125111 457.651371,37.8999892 456.951367,40.05 C456.301364,41.850009 455.488872,43.6624909 454.513867,45.4875 C453.538862,47.3125091 452.226375,48.7999942 450.576367,49.95 C448.976359,51.0000053 447.213877,51.5000002 445.288867,51.45 C443.363858,51.3999998 441.676374,50.7250065 440.226367,49.425 Z M445.026367,29.775 C444.376364,31.5250087 443.901369,33.3749902 443.601367,35.325 C443.301366,37.2750097 443.351365,39.1999905 443.751367,41.1 C443.801367,41.3500012 443.863867,41.6374984 443.938867,41.9625 C444.013868,42.2875016 444.113867,42.6124984 444.238867,42.9375 C444.363868,43.2625016 444.538866,43.5499987 444.763867,43.8 C444.988868,44.0500012 445.251366,44.1999998 445.551367,44.25 C445.901369,44.3000002 446.251365,44.2000012 446.601367,43.95 C446.951369,43.6999988 447.263866,43.4000018 447.538867,43.05 C447.813869,42.6999982 448.051366,42.325002 448.251367,41.925 C448.451368,41.524998 448.626366,41.2000012 448.776367,40.95 C449.576371,39.349992 450.176365,37.6750088 450.576367,35.925 C450.976369,34.1749913 451.001369,32.4250088 450.651367,30.675 C449.601362,30.4249987 448.75137,29.7875051 448.101367,28.7625 C447.451364,27.7374949 447.451364,26.6000062 448.101367,25.35 C448.301368,24.9999982 448.351368,24.7500007 448.251367,24.6 C448.151367,24.4499992 448.076367,24.2250015 448.026367,23.925 C447.926367,24.0250005 447.826368,24.174999 447.726367,24.375 C447.276365,25.2750045 446.80137,26.1499957 446.301367,27 C445.801365,27.8500042 445.376369,28.774995 445.026367,29.775 Z M468.801367,50.025 C468.551366,51.0750053 468.051371,51.799998 467.301367,52.2 C466.551363,52.600002 465.776371,52.7250007 464.976367,52.575 C464.176363,52.4249992 463.438871,52.050003 462.763867,51.45 C462.088864,50.849997 461.726367,50.050005 461.676367,49.05 C461.326365,44.7999787 461.113868,40.5500212 461.038867,36.3 C460.963867,32.0499787 461.051366,27.8000212 461.301367,23.55 C461.351367,22.3999942 461.776363,21.5375029 462.576367,20.9625 C463.376371,20.3874971 464.226363,20.1 465.126367,20.1 C466.026372,20.1 466.838864,20.3874971 467.563867,20.9625 C468.288871,21.5375029 468.626367,22.3999942 468.576367,23.55 C468.476367,25.150008 468.413867,26.7124924 468.388867,28.2375 C468.363867,29.7625076 468.326367,31.324992 468.276367,32.925 C468.77637,32.124996 469.351364,31.325004 470.001367,30.525 C470.701371,29.5749952 471.601362,28.4250068 472.701367,27.075 C473.801373,25.7249933 475.001361,24.550005 476.301367,23.55 C477.601374,22.549995 478.95136,21.9125014 480.351367,21.6375 C481.751374,21.3624986 483.12636,21.7999942 484.476367,22.95 C485.376372,23.7000038 486.038865,24.6249945 486.463867,25.725 C486.888869,26.8250055 487.176366,27.9874939 487.326367,29.2125 C487.476368,30.4375061 487.526367,31.6749937 487.476367,32.925 C487.426367,34.1750062 487.376367,35.3249947 487.326367,36.375 C487.226367,38.775012 487.038869,41.1874879 486.763867,43.6125 C486.488866,46.0375121 486.07637,48.449988 485.526367,50.85 C485.276366,52.0000057 484.726371,52.7624981 483.876367,53.1375 C483.026363,53.5125019 482.163872,53.5750012 481.288867,53.325 C480.413863,53.0749988 479.67637,52.5750038 479.076367,51.825 C478.476364,51.0749962 478.301366,50.1250057 478.551367,48.975 C479.20137,45.774984 479.651366,42.5250165 479.901367,39.225 C480.001368,37.7749927 480.113867,36.2625079 480.238867,34.6875 C480.363868,33.1124921 480.301368,31.6000072 480.051367,30.15 C479.651365,30.550002 479.263869,30.9249982 478.888867,31.275 C478.513865,31.6250017 478.276368,31.8499995 478.176367,31.95 C477.376363,32.8000042 476.638871,33.6749955 475.963867,34.575 C475.288864,35.4750045 474.62637,36.424995 473.976367,37.425 C471.576355,41.3250195 469.851372,45.5249775 468.801367,50.025 Z M497.226367,42.45 C494.976356,41.1499935 493.351372,39.4375106 492.351367,37.3125 C491.351362,35.1874894 491.126364,32.8500127 491.676367,30.3 C491.926368,29.0499937 492.376364,27.8500057 493.026367,26.7 C493.67637,25.5499942 494.463863,24.5125046 495.388867,23.5875 C496.313872,22.6624954 497.351361,21.900003 498.501367,21.3 C499.651373,20.699997 500.876361,20.3250008 502.176367,20.175 C503.476374,20.0249993 504.701361,20.149998 505.851367,20.55 C507.001373,20.950002 508.013863,21.5374961 508.888867,22.3125 C509.763872,23.0875039 510.476364,24.0249945 511.026367,25.125 C511.57637,26.2250055 511.901367,27.3999937 512.001367,28.65 C512.101368,29.8000057 511.788871,30.674997 511.063867,31.275 C510.338864,31.875003 509.526372,32.175 508.626367,32.175 C507.726363,32.175 506.876371,31.875003 506.076367,31.275 C505.276363,30.674997 504.826368,29.8000057 504.726367,28.65 C504.676367,27.8999963 504.426369,27.4750005 503.976367,27.375 C503.526365,27.2749995 503.02637,27.3374989 502.476367,27.5625 C501.926364,27.7875011 501.38887,28.1124979 500.863867,28.5375 C500.338865,28.9625021 499.976368,29.2999987 499.776367,29.55 C499.226364,30.2500035 498.838868,31.0874951 498.613867,32.0625 C498.388866,33.0375049 498.551364,33.924996 499.101367,34.725 C499.60137,35.525004 500.351362,36.124998 501.351367,36.525 C502.351372,36.925002 503.251363,37.324998 504.051367,37.725 C505.051372,38.2750027 506.001363,38.849997 506.901367,39.45 C507.801372,40.050003 508.526364,40.849995 509.076367,41.85 C509.67637,42.9000052 509.988867,43.9624946 510.013867,45.0375 C510.038867,46.1125054 509.826369,47.1249952 509.376367,48.075 C508.926365,49.0250047 508.313871,49.899996 507.538867,50.7 C506.763863,51.500004 505.901372,52.1499975 504.951367,52.65 C503.951362,53.2000028 502.888873,53.6249985 501.763867,53.925 C500.638862,54.2250015 499.513873,54.3999998 498.388867,54.45 C497.263862,54.5000002 496.138873,54.3875014 495.013867,54.1125 C493.888862,53.8374986 492.851372,53.3750033 491.901367,52.725 C490.901362,52.0749967 490.351368,51.2625049 490.251367,50.2875 C490.151367,49.3124951 490.326365,48.425004 490.776367,47.625 C491.226369,46.824996 491.888863,46.2625016 492.763867,45.9375 C493.638872,45.6124984 494.576362,45.7749968 495.576367,46.425 C496.12637,46.825002 496.676364,47.0624996 497.226367,47.1375 C497.77637,47.2125004 498.401364,47.2000005 499.101367,47.1 C499.251368,47.0499997 499.538865,46.9750005 499.963867,46.875 C500.388869,46.7749995 500.813865,46.6375009 501.238867,46.4625 C501.663869,46.2874991 502.038866,46.100001 502.363867,45.9 C502.688869,45.699999 502.826367,45.500001 502.776367,45.3 C502.726367,45.099999 502.45137,44.8625014 501.951367,44.5875 C501.451365,44.3124986 500.88887,44.0375014 500.263867,43.7625 C499.638864,43.4874986 499.02637,43.2250012 498.426367,42.975 C497.826364,42.7249987 497.426368,42.5500005 497.226367,42.45 Z M517.851367,43.2 C517.451365,41.2499902 517.188868,39.2875099 517.063867,37.3125 C516.938867,35.3374901 516.926367,33.35001 517.026367,31.35 C516.126363,31.6500015 515.301371,31.5750023 514.551367,31.125 C513.801363,30.6749977 513.251369,30.0625039 512.901367,29.2875 C512.551365,28.5124961 512.463866,27.7000043 512.638867,26.85 C512.813868,25.9999957 513.351363,25.3000027 514.251367,24.75 C514.80137,24.3999983 515.338865,24.0750015 515.863867,23.775 C516.38887,23.4749985 516.926364,23.1750015 517.476367,22.875 C517.97637,17.0249707 518.651363,11.1750293 519.501367,5.325 C519.651368,4.17499425 520.138863,3.41250187 520.963867,3.0375 C521.788871,2.66249813 522.638863,2.58749887 523.513867,2.8125 C524.388872,3.03750113 525.138864,3.53749613 525.763867,4.3125 C526.38887,5.08750387 526.626368,6.04999425 526.476367,7.2 C525.876364,11.400021 525.351369,15.5499795 524.901367,19.65 C526.051373,19.249998 527.201361,18.8750017 528.351367,18.525 C529.501373,18.1749982 530.651361,17.8500015 531.801367,17.55 C532.951373,17.2999987 533.913863,17.474997 534.688867,18.075 C535.463871,18.675003 535.976366,19.4124956 536.226367,20.2875 C536.476368,21.1625044 536.413869,22.0249957 536.038867,22.875 C535.663865,23.7250042 534.901373,24.2999985 533.751367,24.6 C532.151359,25.000002 530.563875,25.4499975 528.988867,25.95 C527.413859,26.4500025 525.851375,27.0249967 524.301367,27.675 C524.251367,29.0250067 524.213867,30.3749932 524.188867,31.725 C524.163867,33.0750068 524.176367,34.3999935 524.226367,35.7 C524.226367,36.5500042 524.263867,37.5249945 524.338867,38.625 C524.413868,39.7250055 524.563866,40.8124946 524.788867,41.8875 C525.013868,42.9625054 525.338865,43.9749953 525.763867,44.925 C526.188869,45.8750047 526.801363,46.5999975 527.601367,47.1 C528.451371,47.6500027 529.363862,47.8875004 530.338867,47.8125 C531.313872,47.7374996 532.276362,47.500002 533.226367,47.1 C534.176372,46.699998 535.101363,46.2125029 536.001367,45.6375 C536.901372,45.0624971 537.701364,44.5500022 538.401367,44.1 C539.351372,43.4499967 540.263863,43.2999982 541.138867,43.65 C542.013872,44.0000017 542.688865,44.5624961 543.163867,45.3375 C543.63887,46.1125039 543.813868,46.9874951 543.688867,47.9625 C543.563867,48.9375049 543.026372,49.7499967 542.076367,50.4 C540.926361,51.1500037 539.726373,51.8624966 538.476367,52.5375 C537.226361,53.2125034 535.938874,53.7749978 534.613867,54.225 C533.288861,54.6750022 531.938874,54.9374996 530.563867,55.0125 C529.18886,55.0875004 527.801374,54.9000023 526.401367,54.45 C523.851354,53.649996 521.913874,52.1875106 520.588867,50.0625 C519.263861,47.9374894 518.35137,45.6500122 517.851367,43.2 Z M550.926367,54.6 C550.926367,55.800006 550.563871,56.6874971 549.838867,57.2625 C549.113864,57.8375029 548.313872,58.125 547.438867,58.125 C546.563863,58.125 545.738871,57.825003 544.963867,57.225 C544.188863,56.624997 543.751368,55.7500057 543.651367,54.6 C543.201365,49.3499738 542.901368,44.125026 542.751367,38.925 C542.601366,33.724974 542.626366,28.5000262 542.826367,23.25 C542.876367,22.049994 543.288863,21.1625029 544.063867,20.5875 C544.838871,20.0124971 545.676363,19.725 546.576367,19.725 C547.476372,19.725 548.288864,20.0124971 549.013867,20.5875 C549.738871,21.1625029 550.076367,22.049994 550.026367,23.25 C549.976367,24.3500055 549.951367,25.4374946 549.951367,26.5125 L549.951367,29.775 C550.251369,29.2749975 550.563866,28.8000022 550.888867,28.35 C551.213869,27.8999978 551.551365,27.4250025 551.901367,26.925 C552.55137,26.0749957 553.301363,25.2375041 554.151367,24.4125 C555.001371,23.5874959 555.901362,22.8875029 556.851367,22.3125 C557.801372,21.7374971 558.826362,21.350001 559.926367,21.15 C561.026373,20.949999 562.176361,21.049998 563.376367,21.45 C564.826374,21.9500025 565.876364,22.6749952 566.526367,23.625 C567.17637,24.5750048 567.601366,25.6374941 567.801367,26.8125 C568.001368,27.9875059 568.088867,29.2249935 568.063867,30.525 C568.038867,31.8250065 568.076367,33.074994 568.176367,34.275 C568.276368,35.4250057 567.976371,36.2874971 567.276367,36.8625 C566.576364,37.4375029 565.776372,37.725 564.876367,37.725 C563.976363,37.725 563.113871,37.4375029 562.288867,36.8625 C561.463863,36.2874971 561.001368,35.4250057 560.901367,34.275 C560.851367,33.474996 560.926366,32.5375054 561.126367,31.4625 C561.326368,30.3874946 561.276369,29.5000035 560.976367,28.8 L560.826367,28.35 C560.826367,28.4000003 560.751368,28.4499998 560.601367,28.5 C560.301366,28.5500002 559.976369,28.7499982 559.626367,29.1 C559.276365,29.4500018 559.026368,29.724999 558.876367,29.925 C557.876362,30.925005 557.001371,32.024994 556.251367,33.225 C555.501363,34.425006 554.82637,35.6749935 554.226367,36.975 C552.976361,39.7250137 552.11387,42.599985 551.638867,45.6 C551.163865,48.600015 550.926367,51.599985 550.926367,54.6 Z M581.001367,46.275 C581.401369,46.074999 581.751366,45.7500022 582.051367,45.3 C582.351369,44.8499977 582.626366,44.3625026 582.876367,43.8375 C583.126368,43.3124974 583.351366,42.8000025 583.551367,42.3 C583.751368,41.7999975 583.926366,41.350002 584.076367,40.95 C584.426369,39.9999952 584.751366,39.0500047 585.051367,38.1 C585.351369,37.1499953 585.626366,36.2000048 585.876367,35.25 C586.42637,33.049989 586.838866,30.850011 587.113867,28.65 C587.388869,26.449989 587.301369,24.2250113 586.851367,21.975 C586.601366,20.8749945 586.776364,19.9375039 587.376367,19.1625 C587.97637,18.3874961 588.713863,17.8750013 589.588867,17.625 C590.463872,17.3749987 591.326363,17.4374981 592.176367,17.8125 C593.026371,18.1875019 593.576366,18.9499942 593.826367,20.1 C594.526371,23.500017 594.651369,26.899983 594.201367,30.3 C593.751365,33.700017 593.001372,37.0249837 591.951367,40.275 C591.551365,41.5250062 591.08887,42.8374931 590.563867,44.2125 C590.038865,45.5875069 589.401371,46.9124936 588.651367,48.1875 C587.901363,49.4625064 587.026372,50.5874951 586.026367,51.5625 C585.026362,52.5375049 583.826374,53.2499977 582.426367,53.7 C580.276356,54.3500032 578.476374,54.2625041 577.026367,53.4375 C575.57636,52.6124959 574.413872,51.3375086 573.538867,49.6125 C572.663863,47.8874914 572.038869,45.8625116 571.663867,43.5375 C571.288865,41.2124884 571.051368,38.8875116 570.951367,36.5625 C570.851367,34.2374884 570.851367,32.07501 570.951367,30.075 C571.051368,28.07499 571.176366,26.5000058 571.326367,25.35 C571.476368,24.349995 571.851364,23.4875036 572.451367,22.7625 C573.05137,22.0374964 573.901362,21.675 575.001367,21.675 C575.451369,21.675 575.901365,21.774999 576.351367,21.975 C576.801369,22.175001 577.201365,22.4374984 577.551367,22.7625 C577.901369,23.0875016 578.176366,23.4749978 578.376367,23.925 C578.576368,24.3750023 578.651367,24.8499975 578.601367,25.35 C578.001364,29.8000222 577.951365,34.1999783 578.451367,38.55 C578.551368,39.550005 578.688866,40.5624949 578.863867,41.5875 C579.038868,42.6125051 579.251366,43.624995 579.501367,44.625 C579.701368,45.2750032 579.851367,45.799998 579.951367,46.2 C580.051368,46.600002 580.401364,46.6250017 581.001367,46.275 Z M600.651367,49.425 C599.351361,48.2749943 598.42637,46.9125079 597.876367,45.3375 C597.326364,43.7624921 596.976368,42.175008 596.826367,40.575 C596.626366,38.4749895 596.651366,36.3875104 596.901367,34.3125 C597.151368,32.2374896 597.601364,30.2500095 598.251367,28.35 C598.85137,26.549991 599.626362,24.6625099 600.576367,22.6875 C601.526372,20.7124901 602.72636,19.125006 604.176367,17.925 C605.726375,16.6749937 607.426358,16.1999985 609.276367,16.5 C611.126376,16.8000015 612.651361,17.6749927 613.851367,19.125 C614.601371,19.9750042 615.138866,20.899995 615.463867,21.9 C615.788869,22.900005 615.926367,23.9249947 615.876367,24.975 C616.676371,25.375002 617.226366,26.0499952 617.526367,27 C618.326371,29.1000105 618.676368,31.2624889 618.576367,33.4875 C618.476367,35.7125111 618.076371,37.8999892 617.376367,40.05 C616.726364,41.850009 615.913872,43.6624909 614.938867,45.4875 C613.963862,47.3125091 612.651375,48.7999942 611.001367,49.95 C609.401359,51.0000053 607.638877,51.5000002 605.713867,51.45 C603.788858,51.3999998 602.101374,50.7250065 600.651367,49.425 Z M605.451367,29.775 C604.801364,31.5250087 604.326369,33.3749902 604.026367,35.325 C603.726366,37.2750097 603.776365,39.1999905 604.176367,41.1 C604.226367,41.3500012 604.288867,41.6374984 604.363867,41.9625 C604.438868,42.2875016 604.538867,42.6124984 604.663867,42.9375 C604.788868,43.2625016 604.963866,43.5499987 605.188867,43.8 C605.413868,44.0500012 605.676366,44.1999998 605.976367,44.25 C606.326369,44.3000002 606.676365,44.2000012 607.026367,43.95 C607.376369,43.6999988 607.688866,43.4000018 607.963867,43.05 C608.238869,42.6999982 608.476366,42.325002 608.676367,41.925 C608.876368,41.524998 609.051366,41.2000012 609.201367,40.95 C610.001371,39.349992 610.601365,37.6750088 611.001367,35.925 C611.401369,34.1749913 611.426369,32.4250088 611.076367,30.675 C610.026362,30.4249987 609.17637,29.7875051 608.526367,28.7625 C607.876364,27.7374949 607.876364,26.6000062 608.526367,25.35 C608.726368,24.9999982 608.776368,24.7500007 608.676367,24.6 C608.576367,24.4499992 608.501367,24.2250015 608.451367,23.925 C608.351367,24.0250005 608.251368,24.174999 608.151367,24.375 C607.701365,25.2750045 607.22637,26.1499957 606.726367,27 C606.226365,27.8500042 605.801369,28.774995 605.451367,29.775 Z M627.501367,42.45 C625.251356,41.1499935 623.626372,39.4375106 622.626367,37.3125 C621.626362,35.1874894 621.401364,32.8500127 621.951367,30.3 C622.201368,29.0499937 622.651364,27.8500057 623.301367,26.7 C623.95137,25.5499942 624.738863,24.5125046 625.663867,23.5875 C626.588872,22.6624954 627.626361,21.900003 628.776367,21.3 C629.926373,20.699997 631.151361,20.3250008 632.451367,20.175 C633.751374,20.0249993 634.976361,20.149998 636.126367,20.55 C637.276373,20.950002 638.288863,21.5374961 639.163867,22.3125 C640.038872,23.0875039 640.751364,24.0249945 641.301367,25.125 C641.85137,26.2250055 642.176367,27.3999937 642.276367,28.65 C642.376368,29.8000057 642.063871,30.674997 641.338867,31.275 C640.613864,31.875003 639.801372,32.175 638.901367,32.175 C638.001363,32.175 637.151371,31.875003 636.351367,31.275 C635.551363,30.674997 635.101368,29.8000057 635.001367,28.65 C634.951367,27.8999963 634.701369,27.4750005 634.251367,27.375 C633.801365,27.2749995 633.30137,27.3374989 632.751367,27.5625 C632.201364,27.7875011 631.66387,28.1124979 631.138867,28.5375 C630.613865,28.9625021 630.251368,29.2999987 630.051367,29.55 C629.501364,30.2500035 629.113868,31.0874951 628.888867,32.0625 C628.663866,33.0375049 628.826364,33.924996 629.376367,34.725 C629.87637,35.525004 630.626362,36.124998 631.626367,36.525 C632.626372,36.925002 633.526363,37.324998 634.326367,37.725 C635.326372,38.2750027 636.276363,38.849997 637.176367,39.45 C638.076372,40.050003 638.801364,40.849995 639.351367,41.85 C639.95137,42.9000052 640.263867,43.9624946 640.288867,45.0375 C640.313867,46.1125054 640.101369,47.1249952 639.651367,48.075 C639.201365,49.0250047 638.588871,49.899996 637.813867,50.7 C637.038863,51.500004 636.176372,52.1499975 635.226367,52.65 C634.226362,53.2000028 633.163873,53.6249985 632.038867,53.925 C630.913862,54.2250015 629.788873,54.3999998 628.663867,54.45 C627.538862,54.5000002 626.413873,54.3875014 625.288867,54.1125 C624.163862,53.8374986 623.126372,53.3750033 622.176367,52.725 C621.176362,52.0749967 620.626368,51.2625049 620.526367,50.2875 C620.426367,49.3124951 620.601365,48.425004 621.051367,47.625 C621.501369,46.824996 622.163863,46.2625016 623.038867,45.9375 C623.913872,45.6124984 624.851362,45.7749968 625.851367,46.425 C626.40137,46.825002 626.951364,47.0624996 627.501367,47.1375 C628.05137,47.2125004 628.676364,47.2000005 629.376367,47.1 C629.526368,47.0499997 629.813865,46.9750005 630.238867,46.875 C630.663869,46.7749995 631.088865,46.6375009 631.513867,46.4625 C631.938869,46.2874991 632.313866,46.100001 632.638867,45.9 C632.963869,45.699999 633.101367,45.500001 633.051367,45.3 C633.001367,45.099999 632.72637,44.8625014 632.226367,44.5875 C631.726365,44.3124986 631.16387,44.0375014 630.538867,43.7625 C629.913864,43.4874986 629.30137,43.2250012 628.701367,42.975 C628.101364,42.7249987 627.701368,42.5500005 627.501367,42.45 Z" id="Cuidadoconlosmonstruos"></path>
                <path d="M655.643555,42.0095703 C655.07389,42.0095703 654.544924,41.9526047 654.056641,41.8386719 C653.373043,41.7084629 652.876629,41.2527383 652.567383,40.4714844 C652.258136,39.6902305 652.103516,38.3311946 652.103516,36.3943359 C652.103516,34.0668503 652.258136,31.1941577 652.567383,27.7761719 C652.860353,24.5534995 653.234698,21.6075654 653.69043,18.9382813 C654.455407,14.0391682 655.733064,10.9955789 657.523437,9.80742188 C658.923184,8.84713062 660.550772,8.36699219 662.40625,8.36699219 C662.878258,8.36699219 663.317706,8.40768188 663.724609,8.4890625 C665.026699,8.78203271 665.677734,9.30286084 665.677734,10.0515625 C665.677734,10.3445327 665.531251,10.6781882 665.238281,11.0525391 C665.010416,11.312957 664.741864,11.719854 664.432617,12.2732422 C663.618811,13.7380933 662.870121,16.6514756 662.186523,21.0134766 C661.388993,26.0427986 660.819338,31.2592178 660.477539,36.6628906 C660.428711,37.4766968 660.379883,38.1684216 660.331055,38.7380859 C660.26595,39.6983772 660.139812,40.3616193 659.952637,40.727832 C659.765461,41.0940448 659.37484,41.3666658 658.780762,41.5457031 C658.186683,41.7247405 657.433924,41.8630854 656.522461,41.9607422 C656.213215,41.9932944 655.920249,42.0095703 655.643555,42.0095703 Z M655.25293,54.1677734 C653.836907,54.1677734 652.660975,53.6957729 651.725098,52.7517578 C650.789221,51.8077427 650.370117,50.6684312 650.467773,49.3337891 C650.549154,48.0154231 651.122879,46.8842495 652.188965,45.9402344 C653.255051,44.9962192 654.496087,44.5242188 655.912109,44.5242188 C657.311856,44.5242188 658.483719,44.9962192 659.427734,45.9402344 C660.37175,46.8842495 660.794922,48.0154231 660.697266,49.3337891 C660.615885,50.6684312 660.04216,51.8077427 658.976074,52.7517578 C657.909988,53.6957729 656.668952,54.1677734 655.25293,54.1677734 Z" id="!"></path>
                <path d="M3.34472656,59.1121094 C2.84016675,59.1121094 2.3763042,59.0714197 1.953125,58.9900391 C0.651035156,58.6970688 -1.70530257e-13,58.1762407 -1.70530257e-13,57.4275391 C-1.70530257e-13,57.1345688 0.14648291,56.8090513 0.439453125,56.4509766 C0.667318848,56.1742825 0.93587085,55.7592476 1.24511719,55.2058594 C2.05892334,53.7410083 2.81575171,50.819488 3.515625,46.4412109 C4.29687891,41.428165 4.85839673,36.2198838 5.20019531,30.8162109 C5.24902368,30.0024048 5.29785132,29.3106799 5.34667969,28.7410156 C5.41178418,27.7807244 5.54199121,27.1134133 5.73730469,26.7390625 C6.0302749,26.1531221 7.16958643,25.754363 9.15527344,25.5427734 C9.49707202,25.5102212 9.8225896,25.4939453 10.1318359,25.4939453 C10.668948,25.4939453 11.1653623,25.5427729 11.6210937,25.6404297 C12.3046909,25.7706387 12.8011052,26.2263633 13.1103516,27.0076172 C13.4195979,27.7888711 13.5742187,29.1560449 13.5742187,31.1091797 C13.5742187,33.4203892 13.4195979,36.2849438 13.1103516,39.7029297 C12.8173813,42.9256021 12.4430361,45.8796741 11.9873047,48.5652344 C11.2223269,53.4480713 9.94467041,56.4835227 8.15429687,57.6716797 C6.78710254,58.6319709 5.18392847,59.1121094 3.34472656,59.1121094 Z M10.4248047,13.3113281 C11.8408274,13.3113281 13.0167596,13.7833286 13.9526367,14.7273438 C14.8885138,15.6713589 15.3076177,16.8106704 15.2099609,18.1453125 C15.1285803,19.4799546 14.5548556,20.6192661 13.4887695,21.5632813 C12.4226835,22.5072964 11.1816477,22.9792969 9.765625,22.9792969 C8.36587842,22.9792969 7.19401514,22.5072964 6.25,21.5632813 C5.30598486,20.6192661 4.88281201,19.4799546 4.98046875,18.1453125 C5.06184937,16.8106704 5.6355741,15.6713589 6.70166016,14.7273438 C7.76774622,13.7833286 9.00878198,13.3113281 10.4248047,13.3113281 Z" id=""></path>
            </g>
        </g>
    </g>
</svg>