<?xml version="1.0" encoding="UTF-8"?>
<svg width="209px" height="80px" viewBox="0 0 209 80" version="1.1" xmlns="http://www.w3.org/2000/svg" xmlns:xlink="http://www.w3.org/1999/xlink">
    <!-- Generator: Sketch 54.1 (76490) - https://sketchapp.com -->
    <title>Group 3</title>
    <desc>Created with Sketch.</desc>
    <g id="SPLASH" stroke="none" stroke-width="1" fill="none" fill-rule="evenodd">
        <g id="Tablet" transform="translate(-109.000000, -172.000000)" fill="#814267" fill-rule="nonzero">
            <g id="Group-3" transform="translate(109.000000, 172.000000)">
                <path d="M36.2501475,23.1954551 C35.6201443,24.18546 34.8626519,25.1304506 33.9776475,26.0304551 C33.092643,26.9304596 32.1176528,27.6279526 31.0526475,28.1229551 C29.9876421,28.6179576 28.8776532,28.8429553 27.7226475,28.7979551 C26.5676417,28.7529549 25.435153,28.3104593 24.3251475,27.4704551 C23.3351425,26.7504515 22.5626502,25.8354606 22.0076475,24.7254551 C21.4526447,23.6154495 21.0551487,22.4304614 20.8151475,21.1704551 C20.5751463,19.9104488 20.4776472,18.6279616 20.5226475,17.3229551 C20.5676477,16.0179486 20.7101463,14.8254605 20.9501475,13.7454551 C21.1601485,12.8154504 21.5276448,11.8104605 22.0526475,10.7304551 C22.5776501,9.65044968 23.2301436,8.6679595 24.0101475,7.78295508 C24.7901514,6.89795065 25.6751425,6.20045763 26.6651475,5.69045508 C27.6551524,5.18045253 28.7201418,5.04545388 29.8601475,5.28545508 C31.3001547,5.61545673 32.3351443,6.27545013 32.9651475,7.26545508 C33.5951506,8.25546003 33.9176474,9.36544893 33.9326475,10.5954551 C33.9476475,11.8254612 33.7076499,13.0629489 33.2126475,14.3079551 C32.717645,15.5529613 32.0801514,16.5654512 31.3001475,17.3454551 C30.7901449,17.8554576 30.2501503,18.0654555 29.6801475,17.9754551 C29.1101446,17.8854546 28.6301494,17.652957 28.2401475,17.2779551 C27.8501455,16.9029532 27.6176478,16.4304579 27.5426475,15.8604551 C27.4676471,15.2904522 27.6851449,14.7504576 28.1951475,14.2404551 C28.6451497,13.820453 29.0351458,13.2879583 29.3651475,12.6429551 C29.6951491,11.9979519 29.7851482,11.3304585 29.6351475,10.6404551 C29.545147,10.2804533 29.4251482,10.0329558 29.2751475,9.89795508 C29.1251467,9.7629544 28.9601484,9.702955 28.7801475,9.71795508 C28.6001466,9.73295515 28.4051485,9.81545433 28.1951475,9.96545508 C27.9851464,10.1154558 27.7751485,10.2804542 27.5651475,10.4604551 C26.7251433,11.240459 26.0951496,12.1479499 25.6751475,13.1829551 C25.2551454,14.2179603 25.0001479,15.2904495 24.9101475,16.4004551 C24.8801473,16.9404578 24.8726474,17.5779514 24.8876475,18.3129551 C24.9026475,19.0479588 24.9776468,19.7829514 25.1126475,20.5179551 C25.2476481,21.2529588 25.465146,21.9429519 25.7651475,22.5879551 C26.065149,23.2329583 26.4701449,23.7204534 26.9801475,24.0504551 C27.5501503,24.4104569 28.1051448,24.5379556 28.6451475,24.4329551 C29.1851502,24.3279546 29.702645,24.087957 30.1976475,23.7129551 C30.6926499,23.3379532 31.1351455,22.9029576 31.5251475,22.4079551 C31.9151494,21.9129526 32.2451461,21.4554572 32.5151475,21.0354551 C32.8751493,20.4354521 33.3476445,20.1054554 33.9326475,20.0454551 C34.5176504,19.9854548 35.0426451,20.0904537 35.5076475,20.3604551 C35.9726498,20.6304564 36.3026465,21.0279525 36.4976475,21.5529551 C36.6926484,22.0779577 36.6101493,22.6254522 36.2501475,23.1954551 Z M44.0351475,24.5004551 C44.2751487,24.3804545 44.4851466,24.1854564 44.6651475,23.9154551 C44.8451484,23.6454537 45.0101467,23.3529567 45.1601475,23.0379551 C45.3101482,22.7229535 45.4451469,22.4154566 45.5651475,22.1154551 C45.6851481,21.8154536 45.790147,21.5454563 45.8801475,21.3054551 C46.0901485,20.7354522 46.2851466,20.1654579 46.4651475,19.5954551 C46.6451484,19.0254522 46.8101467,18.4554579 46.9601475,17.8854551 C47.2901491,16.5654485 47.5376466,15.2454617 47.7026475,13.9254551 C47.8676483,12.6054485 47.8151488,11.2704618 47.5451475,9.92045508 C47.3951467,9.26045178 47.5001457,8.6979574 47.8601475,8.23295508 C48.2201493,7.76795275 48.6626448,7.46045583 49.1876475,7.31045508 C49.7126501,7.16045433 50.2301449,7.19795395 50.7401475,7.42295508 C51.25015,7.6479562 51.5801467,8.10545163 51.7301475,8.79545508 C52.1501496,10.8354653 52.2251488,12.8754449 51.9551475,14.9154551 C51.6851461,16.9554653 51.2351506,18.9504453 50.6051475,20.9004551 C50.3651463,21.6504588 50.087649,22.437951 49.7726475,23.2629551 C49.4576459,24.0879592 49.0751497,24.8829513 48.6251475,25.6479551 C48.1751452,26.4129589 47.6501505,27.0879522 47.0501475,27.6729551 C46.4501445,28.257958 45.7301517,28.6854537 44.8901475,28.9554551 C43.600141,29.345457 42.5201518,29.2929576 41.6501475,28.7979551 C40.7801431,28.3029526 40.0826501,27.5379603 39.5576475,26.5029551 C39.0326448,25.4679499 38.6576486,24.2529621 38.4326475,22.8579551 C38.2076463,21.4629481 38.0651478,20.0679621 38.0051475,18.6729551 C37.9451472,17.2779481 37.9451472,15.9804611 38.0051475,14.7804551 C38.0651478,13.5804491 38.140147,12.6354585 38.2301475,11.9454551 C38.3201479,11.3454521 38.5451457,10.8279573 38.9051475,10.3929551 C39.2651493,9.9579529 39.7751442,9.74045508 40.4351475,9.74045508 C40.7051488,9.74045508 40.9751461,9.80045448 41.2451475,9.92045508 C41.5151488,10.0404557 41.7551464,10.1979541 41.9651475,10.3929551 C42.1751485,10.5879561 42.3401469,10.8204537 42.4601475,11.0904551 C42.5801481,11.3604564 42.6251476,11.6454536 42.5951475,11.9454551 C42.2351457,14.6154684 42.205146,17.255442 42.5051475,19.8654551 C42.5651478,20.4654581 42.6476469,21.072952 42.7526475,21.6879551 C42.857648,22.3029582 42.9851467,22.9104521 43.1351475,23.5104551 C43.2551481,23.900457 43.3451472,24.2154539 43.4051475,24.4554551 C43.4651478,24.6954563 43.6751457,24.7104561 44.0351475,24.5004551 Z M58.3901475,14.0154551 C58.3601473,14.2554563 58.3451475,14.487954 58.3451475,14.7129551 C58.3451475,14.9379562 58.3301476,15.1704539 58.3001475,15.4104551 C58.2701473,15.9204576 58.2551475,16.4454524 58.2551475,16.9854551 L58.2551475,18.5604551 C58.2851476,19.7004608 58.345147,20.8254495 58.4351475,21.9354551 C58.5251479,23.0454606 58.6751464,24.1704494 58.8851475,25.3104551 C59.0051481,26.0004585 58.8701494,26.5779528 58.4801475,27.0429551 C58.0901455,27.5079574 57.6326501,27.8154543 57.1076475,27.9654551 C56.5826448,28.1154558 56.0726499,28.0779562 55.5776475,27.8529551 C55.082645,27.627954 54.7751481,27.1704585 54.6551475,26.4804551 C54.4151463,24.9804476 54.2276481,23.4954624 54.0926475,22.0254551 C53.9576468,20.5554477 53.8901475,19.0554627 53.8901475,17.5254551 C53.8901475,16.7454512 53.9126472,15.9804588 53.9576475,15.2304551 C54.0026477,14.4804513 54.0551472,13.7304588 54.1151475,12.9804551 C54.1751478,12.4104522 54.250147,11.8779576 54.3401475,11.3829551 C54.4301479,10.8879526 54.6851454,10.4304572 55.1051475,10.0104551 C55.4351491,9.68045343 55.8551449,9.4629556 56.3651475,9.35795508 C56.87515,9.25295455 57.3251455,9.35045358 57.7151475,9.65045508 C57.7451476,9.68045523 57.7751473,9.702955 57.8051475,9.71795508 C57.8351476,9.73295515 57.8651473,9.75545493 57.8951475,9.78545508 C58.3751499,10.1454569 58.7051466,10.5879525 58.8851475,11.1129551 C59.0651484,11.6379577 58.9901491,12.1854522 58.6601475,12.7554551 C58.6601475,12.7854552 58.6301478,12.8304548 58.5701475,12.8904551 C58.5701475,12.9504554 58.5401478,13.0104548 58.4801475,13.0704551 C58.4501473,13.2204558 58.4351475,13.3779543 58.4351475,13.5429551 C58.4351475,13.7079559 58.4201476,13.8654543 58.3901475,14.0154551 Z M56.9051475,5.55545508 C56.215144,5.55545508 55.6901493,5.33045733 55.3301475,4.88045508 C54.9701457,4.43045283 54.7901475,3.92795785 54.7901475,3.37295508 C54.7901475,2.8179523 54.9701457,2.31545733 55.3301475,1.86545508 C55.6901493,1.41545283 56.215144,1.19045508 56.9051475,1.19045508 C57.5951509,1.19045508 58.1126457,1.41545283 58.4576475,1.86545508 C58.8026492,2.31545733 58.9751475,2.8179523 58.9751475,3.37295508 C58.9751475,3.92795785 58.8026492,4.43045283 58.4576475,4.88045508 C58.1126457,5.33045733 57.5951509,5.55545508 56.9051475,5.55545508 Z M75.3551475,1.10045508 C75.5951487,0.530452226 75.9776448,0.185455676 76.5026475,0.0654550756 C77.0276501,-0.0545455244 77.5301451,-0.00954597442 78.0101475,0.200455076 C78.4901499,0.410456126 78.880146,0.747952751 79.1801475,1.21295508 C79.480149,1.6779574 79.5401484,2.19545223 79.3601475,2.76545508 C78.9401454,4.11546183 78.5126496,5.46544833 78.0776475,6.81545508 C77.6426453,8.16546183 77.2001497,9.51544833 76.7501475,10.8654551 C76.0901442,14.045471 75.7976471,17.247939 75.8726475,20.4729551 C75.9476478,23.6979712 76.4051433,26.8854393 77.2451475,30.0354551 C77.4251484,30.7254585 77.3426492,31.2954528 76.9976475,31.7454551 C76.6526457,32.1954573 76.2101502,32.4954543 75.6701475,32.6454551 C75.1301448,32.7954558 74.5976501,32.7654561 74.0726475,32.5554551 C73.5476448,32.345454 73.1951484,31.8954585 73.0151475,31.2054551 C72.715146,30.0054491 72.4601485,28.8204609 72.2501475,27.6504551 C72.0401464,26.4804492 71.8751481,25.2954611 71.7551475,24.0954551 C71.3351454,24.9354593 70.8251505,25.7079516 70.2251475,26.4129551 C69.6251445,27.1179586 68.8901518,27.6354534 68.0201475,27.9654551 C67.3601442,28.2054563 66.7376504,28.2879555 66.1526475,28.2129551 C65.5676445,28.1379547 65.0276499,27.9579565 64.5326475,27.6729551 C64.037645,27.3879537 63.5951494,27.0054575 63.2051475,26.5254551 C62.8151455,26.0454527 62.5001487,25.5054581 62.2601475,24.9054551 C61.7501449,23.6754489 61.4051484,22.3854618 61.2251475,21.0354551 C61.0451466,19.6854483 61.0301467,18.3429618 61.1801475,17.0079551 C61.3301482,15.6729484 61.6376451,14.3604615 62.1026475,13.0704551 C62.5676498,11.7804486 63.1601439,10.5954605 63.8801475,9.51545508 C64.2401493,8.97545238 64.6301454,8.4729574 65.0501475,8.00795508 C65.4701496,7.54295275 65.9351449,7.15295665 66.4451475,6.83795508 C66.95515,6.5229535 67.5026445,6.32045553 68.0876475,6.23045508 C68.6726504,6.14045463 69.310144,6.20045403 70.0001475,6.41045508 C70.6901509,6.62045613 71.2526453,6.92795305 71.6876475,7.33295508 C72.1226496,7.7379571 72.490146,8.19545253 72.7901475,8.70545508 C72.8201476,8.64545478 72.8426474,8.5929553 72.8576475,8.54795508 C72.8726475,8.50295485 72.8951473,8.45045538 72.9251475,8.39045508 C73.225149,7.25044938 73.5551457,6.1179607 73.9151475,4.99295508 C74.2751493,3.86794945 74.6801452,2.75046063 75.1301475,1.64045508 L75.1751475,1.59545508 L75.2651475,1.32545508 C75.2951476,1.23545463 75.3251473,1.16045538 75.3551475,1.10045508 Z M69.3701475,18.6054551 C69.6101487,18.0054521 69.8351464,17.3979582 70.0451475,16.7829551 C70.2551485,16.167952 70.4651464,15.5604581 70.6751475,14.9604551 C70.0751445,14.6004533 69.7301479,14.030459 69.6401475,13.2504551 C69.6401475,13.1004543 69.6251476,12.8904564 69.5951475,12.6204551 C69.5651473,12.3504537 69.5276477,12.0804564 69.4826475,11.8104551 C69.4376472,11.5404537 69.3551481,11.2854563 69.2351475,11.0454551 C69.1151469,10.8054539 68.9651484,10.6554554 68.7851475,10.5954551 C68.5451463,10.5354548 68.3276484,10.6629535 68.1326475,10.9779551 C67.9376465,11.2929567 67.7651482,11.5404542 67.6151475,11.7204551 C67.1651452,12.4104585 66.790149,13.1229514 66.4901475,13.8579551 C66.190146,14.5929588 65.9501484,15.3504512 65.7701475,16.1304551 C65.4101457,17.6304626 65.3501463,19.2054468 65.5901475,20.8554551 C65.6501478,21.2754572 65.7326469,21.6804531 65.8376475,22.0704551 C65.942648,22.460457 66.0701467,22.8504531 66.2201475,23.2404551 C66.3701482,23.5704567 66.4601473,23.7504549 66.4901475,23.7804551 C66.5201476,23.8104552 66.6551463,23.7504558 66.8951475,23.6004551 C67.195149,23.390454 67.4726462,23.0754572 67.7276475,22.6554551 C67.9826487,22.235453 68.2151464,21.7854575 68.4251475,21.3054551 C68.6351485,20.8254527 68.8151467,20.3379576 68.9651475,19.8429551 C69.1151482,19.3479526 69.2501469,18.9354567 69.3701475,18.6054551 Z M89.9351475,29.0454551 C89.6051458,27.6654482 89.3726481,26.2929619 89.2376475,24.9279551 C89.1026468,23.5629483 89.0501473,22.190462 89.0801475,20.8104551 C88.6601454,21.5004585 88.2251497,22.1679519 87.7751475,22.8129551 C87.3251452,23.4579583 86.8301502,24.0804521 86.2901475,24.6804551 C85.9601458,25.0404569 85.6001494,25.4079532 85.2101475,25.7829551 C84.8201455,26.157957 84.4076496,26.5179534 83.9726475,26.8629551 C83.5376453,27.2079568 83.0801499,27.5004539 82.6001475,27.7404551 C82.1201451,27.9804563 81.6401499,28.1154549 81.1601475,28.1454551 C80.4401439,28.2054554 79.8551497,28.0929565 79.4051475,27.8079551 C78.9551452,27.5229537 78.6101487,27.1404575 78.3701475,26.6604551 C78.1301463,26.1804527 77.9651479,25.6404581 77.8751475,25.0404551 C77.785147,24.4404521 77.7401475,23.8704578 77.7401475,23.3304551 C77.7401475,22.1904494 77.890146,21.027961 78.1901475,19.8429551 C78.490149,18.6579492 78.8951449,17.5029607 79.4051475,16.3779551 C79.91515,15.2529495 80.5226439,14.19546 81.2276475,13.2054551 C81.932651,12.2154501 82.7051433,11.3454588 83.5451475,10.5954551 C84.1451505,10.0554524 84.790144,9.65795635 85.4801475,9.40295508 C86.1701509,9.1479538 86.860144,9.02045508 87.5501475,9.02045508 C88.2401475,9.02045508 88.9001443,9.13295395 89.5301475,9.35795508 C90.1601506,9.5829562 90.7301449,9.92045283 91.2401475,10.3704551 C91.5701491,10.2804546 91.9151457,10.2654548 92.2751475,10.3254551 C92.6351493,10.3854554 92.957646,10.5129541 93.2426475,10.7079551 C93.5276489,10.9029561 93.7526466,11.1579535 93.9176475,11.4729551 C94.0826483,11.7879567 94.1501476,12.1254533 94.1201475,12.4854551 C93.9701467,13.7454614 93.8276481,15.0204486 93.6926475,16.3104551 C93.5576468,17.6004615 93.4676477,18.8904486 93.4226475,20.1804551 C93.3776472,21.4704615 93.4076469,22.7604486 93.5126475,24.0504551 C93.617648,25.3404615 93.8351458,26.6154488 94.1651475,27.8754551 C94.3451484,28.5654585 94.2551493,29.1429528 93.8951475,29.6079551 C93.5351457,30.0729574 93.0926501,30.3729544 92.5676475,30.5079551 C92.0426448,30.6429558 91.5176501,30.6054561 90.9926475,30.3954551 C90.4676448,30.185454 90.1151484,29.7354585 89.9351475,29.0454551 Z M85.6601475,18.1104551 C86.1401499,17.3604513 86.5976453,16.6179588 87.0326475,15.8829551 C87.4676496,15.1479514 87.9251451,14.4204587 88.4051475,13.7004551 C88.2251466,13.4304537 87.9701491,13.302955 87.6401475,13.3179551 C87.3101458,13.3329552 86.9801491,13.4604539 86.6501475,13.7004551 C86.1401449,14.0604569 85.6901494,14.5329522 85.3001475,15.1179551 C84.9101455,15.702958 84.5501491,16.2504525 84.2201475,16.7604551 C83.8601457,17.3904582 83.530149,18.0279519 83.2301475,18.6729551 C82.930146,19.3179583 82.6751485,19.9854516 82.4651475,20.6754551 C82.4051472,20.855456 82.322648,21.1704528 82.2176475,21.6204551 C82.1126469,22.0704573 82.0301478,22.505453 81.9701475,22.9254551 C82.2401488,22.6854539 82.5026462,22.4154566 82.7576475,22.1154551 C83.0126487,21.8154536 83.2151467,21.575456 83.3651475,21.3954551 C83.8151497,20.8854525 84.2276456,20.3529579 84.6026475,19.7979551 C84.9776493,19.2429523 85.3301458,18.6804579 85.6601475,18.1104551 Z M109.915147,1.10045508 C110.155149,0.530452226 110.537645,0.185455676 111.062647,0.0654550756 C111.58765,-0.0545455244 112.090145,-0.00954597442 112.570147,0.200455076 C113.05015,0.410456126 113.440146,0.747952751 113.740147,1.21295508 C114.040149,1.6779574 114.100148,2.19545223 113.920147,2.76545508 C113.500145,4.11546183 113.07265,5.46544833 112.637647,6.81545508 C112.202645,8.16546183 111.76015,9.51544833 111.310147,10.8654551 C110.650144,14.045471 110.357647,17.247939 110.432647,20.4729551 C110.507648,23.6979712 110.965143,26.8854393 111.805147,30.0354551 C111.985148,30.7254585 111.902649,31.2954528 111.557647,31.7454551 C111.212646,32.1954573 110.77015,32.4954543 110.230147,32.6454551 C109.690145,32.7954558 109.15765,32.7654561 108.632647,32.5554551 C108.107645,32.345454 107.755148,31.8954585 107.575147,31.2054551 C107.275146,30.0054491 107.020149,28.8204609 106.810147,27.6504551 C106.600146,26.4804492 106.435148,25.2954611 106.315147,24.0954551 C105.895145,24.9354593 105.38515,25.7079516 104.785147,26.4129551 C104.185144,27.1179586 103.450152,27.6354534 102.580147,27.9654551 C101.920144,28.2054563 101.29765,28.2879555 100.712647,28.2129551 C100.127645,28.1379547 99.5876499,27.9579565 99.0926475,27.6729551 C98.597645,27.3879537 98.1551494,27.0054575 97.7651475,26.5254551 C97.3751455,26.0454527 97.0601487,25.5054581 96.8201475,24.9054551 C96.3101449,23.6754489 95.9651484,22.3854618 95.7851475,21.0354551 C95.6051466,19.6854483 95.5901467,18.3429618 95.7401475,17.0079551 C95.8901482,15.6729484 96.1976451,14.3604615 96.6626475,13.0704551 C97.1276498,11.7804486 97.7201439,10.5954605 98.4401475,9.51545508 C98.8001493,8.97545238 99.1901454,8.4729574 99.6101475,8.00795508 C100.03015,7.54295275 100.495145,7.15295665 101.005147,6.83795508 C101.51515,6.5229535 102.062645,6.32045553 102.647647,6.23045508 C103.23265,6.14045463 103.870144,6.20045403 104.560147,6.41045508 C105.250151,6.62045613 105.812645,6.92795305 106.247647,7.33295508 C106.68265,7.7379571 107.050146,8.19545253 107.350147,8.70545508 C107.380148,8.64545478 107.402647,8.5929553 107.417647,8.54795508 C107.432648,8.50295485 107.455147,8.45045538 107.485147,8.39045508 C107.785149,7.25044938 108.115146,6.1179607 108.475147,4.99295508 C108.835149,3.86794945 109.240145,2.75046063 109.690147,1.64045508 L109.735147,1.59545508 L109.825147,1.32545508 C109.855148,1.23545463 109.885147,1.16045538 109.915147,1.10045508 Z M103.930147,18.6054551 C104.170149,18.0054521 104.395146,17.3979582 104.605147,16.7829551 C104.815149,16.167952 105.025146,15.5604581 105.235147,14.9604551 C104.635144,14.6004533 104.290148,14.030459 104.200147,13.2504551 C104.200147,13.1004543 104.185148,12.8904564 104.155147,12.6204551 C104.125147,12.3504537 104.087648,12.0804564 104.042647,11.8104551 C103.997647,11.5404537 103.915148,11.2854563 103.795147,11.0454551 C103.675147,10.8054539 103.525148,10.6554554 103.345147,10.5954551 C103.105146,10.5354548 102.887648,10.6629535 102.692647,10.9779551 C102.497646,11.2929567 102.325148,11.5404542 102.175147,11.7204551 C101.725145,12.4104585 101.350149,13.1229514 101.050147,13.8579551 C100.750146,14.5929588 100.510148,15.3504512 100.330147,16.1304551 C99.9701457,17.6304626 99.9101463,19.2054468 100.150147,20.8554551 C100.210148,21.2754572 100.292647,21.6804531 100.397647,22.0704551 C100.502648,22.460457 100.630147,22.8504531 100.780147,23.2404551 C100.930148,23.5704567 101.020147,23.7504549 101.050147,23.7804551 C101.080148,23.8104552 101.215146,23.7504558 101.455147,23.6004551 C101.755149,23.390454 102.032646,23.0754572 102.287647,22.6554551 C102.542649,22.235453 102.775146,21.7854575 102.985147,21.3054551 C103.195149,20.8254527 103.375147,20.3379576 103.525147,19.8429551 C103.675148,19.3479526 103.810147,18.9354567 103.930147,18.6054551 Z M114.640147,26.3904551 C113.860144,25.7004516 113.305149,24.8829598 112.975147,23.9379551 C112.645146,22.9929504 112.435148,22.0404599 112.345147,21.0804551 C112.225147,19.8204488 112.240147,18.5679613 112.390147,17.3229551 C112.540148,16.0779489 112.810146,14.8854608 113.200147,13.7454551 C113.560149,12.6654497 114.025145,11.532961 114.595147,10.3479551 C115.16515,9.16294915 115.885143,8.21045868 116.755147,7.49045508 C117.685152,6.74045133 118.705142,6.45545418 119.815147,6.63545508 C120.925153,6.81545598 121.840144,7.34045073 122.560147,8.21045508 C123.01015,8.72045763 123.332646,9.27545208 123.527647,9.87545508 C123.722648,10.4754581 123.805148,11.0904519 123.775147,11.7204551 C124.25515,11.9604563 124.585147,12.3654522 124.765147,12.9354551 C125.24515,14.1954614 125.455148,15.4929484 125.395147,16.8279551 C125.335147,18.1629618 125.09515,19.4754486 124.675147,20.7654551 C124.285146,21.8454605 123.79765,22.9329496 123.212647,24.0279551 C122.627645,25.1229606 121.840152,26.0154516 120.850147,26.7054551 C119.890143,27.3354582 118.832653,27.6354552 117.677647,27.6054551 C116.522642,27.5754549 115.510152,27.170459 114.640147,26.3904551 Z M117.520147,14.6004551 C117.130146,15.6504603 116.845148,16.7604492 116.665147,17.9304551 C116.485147,19.1004609 116.515146,20.2554494 116.755147,21.3954551 C116.785148,21.5454558 116.822647,21.7179541 116.867647,21.9129551 C116.912648,22.1079561 116.972647,22.3029541 117.047647,22.4979551 C117.122648,22.6929561 117.227647,22.8654543 117.362647,23.0154551 C117.497648,23.1654558 117.655147,23.2554549 117.835147,23.2854551 C118.045149,23.3154552 118.255146,23.2554558 118.465147,23.1054551 C118.675149,22.9554543 118.862647,22.7754561 119.027647,22.5654551 C119.192648,22.355454 119.335147,22.1304563 119.455147,21.8904551 C119.575148,21.6504539 119.680147,21.4554558 119.770147,21.3054551 C120.25015,20.3454503 120.610146,19.3404603 120.850147,18.2904551 C121.090149,17.2404498 121.105149,16.1904603 120.895147,15.1404551 C120.265144,14.9904543 119.755149,14.6079582 119.365147,13.9929551 C118.975146,13.377952 118.975146,12.6954588 119.365147,11.9454551 C119.485148,11.735454 119.515148,11.5854555 119.455147,11.4954551 C119.395147,11.4054546 119.350148,11.270456 119.320147,11.0904551 C119.260147,11.1504554 119.200148,11.2404545 119.140147,11.3604551 C118.870146,11.9004578 118.585149,12.4254525 118.285147,12.9354551 C117.985146,13.4454576 117.730149,14.0004521 117.520147,14.6004551 Z M140.425147,28.2354551 C139.375142,27.8754533 138.56515,27.3204588 137.995147,26.5704551 C137.425145,25.8204513 137.012649,24.9804597 136.757647,24.0504551 C136.502646,23.1204504 136.375147,22.1454602 136.375147,21.1254551 C136.375147,20.10545 136.450147,19.1454596 136.600147,18.2454551 C136.720148,17.3754507 136.937646,16.4229603 137.252647,15.3879551 C137.567649,14.3529499 137.972645,13.3554599 138.467647,12.3954551 C138.96265,11.4354503 139.555144,10.5579591 140.245147,9.76295508 C140.935151,8.9679511 141.715143,8.37545703 142.585147,7.98545508 C143.395152,7.62545328 144.250143,7.55045403 145.150147,7.76045508 C146.050152,7.97045613 146.830144,8.37545208 147.490147,8.97545508 C148.330152,9.72545883 148.877646,10.61045 149.132647,11.6304551 C149.387649,12.6504602 149.575147,13.6854498 149.695147,14.7354551 C149.785148,15.4254585 149.62015,15.9504533 149.200147,16.3104551 C148.780145,16.6704569 148.30015,16.8504551 147.760147,16.8504551 C147.220145,16.8504551 146.70265,16.6704569 146.207647,16.3104551 C145.712645,15.9504533 145.420148,15.4254585 145.330147,14.7354551 C145.330147,14.6454546 145.315148,14.4429567 145.285147,14.1279551 C145.255147,13.8129535 145.202648,13.4979567 145.127647,13.1829551 C145.052647,12.8679535 144.947648,12.5829564 144.812647,12.3279551 C144.677647,12.0729538 144.505149,11.9604549 144.295147,11.9904551 C144.175147,11.9904551 144.040148,12.0729543 143.890147,12.2379551 C143.740147,12.4029559 143.590148,12.590454 143.440147,12.8004551 C143.290147,13.0104561 143.155148,13.220454 143.035147,13.4304551 C142.915147,13.6404561 142.825148,13.7904546 142.765147,13.8804551 C142.195145,14.8104597 141.730149,15.7929499 141.370147,16.8279551 C141.010146,17.8629603 140.800148,18.9204497 140.740147,20.0004551 C140.710147,20.4204572 140.695147,20.8854525 140.695147,21.3954551 C140.695147,21.9054576 140.762647,22.3779529 140.897647,22.8129551 C141.032648,23.2479573 141.250146,23.6079537 141.550147,23.8929551 C141.850149,24.1779565 142.300144,24.3054552 142.900147,24.2754551 C143.41015,24.2454549 143.882645,24.1029564 144.317647,23.8479551 C144.75265,23.5929538 145.165146,23.2854569 145.555147,22.9254551 C145.945149,22.5654533 146.305146,22.1829571 146.635147,21.7779551 C146.965149,21.3729531 147.280146,20.9904569 147.580147,20.6304551 C148.03015,20.0904524 148.532645,19.8504548 149.087647,19.9104551 C149.64265,19.9704554 150.115146,20.1954531 150.505147,20.5854551 C150.895149,20.975457 151.135147,21.4629522 151.225147,22.0479551 C151.315148,22.632958 151.13515,23.1954524 150.685147,23.7354551 C150.055144,24.4854588 149.357651,25.2054516 148.592647,25.8954551 C147.827644,26.5854585 147.017652,27.1704527 146.162647,27.6504551 C145.307643,28.1304575 144.400152,28.4379544 143.440147,28.5729551 C142.480143,28.7079558 141.475153,28.5954569 140.425147,28.2354551 Z M154.555147,26.3904551 C153.775144,25.7004516 153.220149,24.8829598 152.890147,23.9379551 C152.560146,22.9929504 152.350148,22.0404599 152.260147,21.0804551 C152.140147,19.8204488 152.155147,18.5679613 152.305147,17.3229551 C152.455148,16.0779489 152.725146,14.8854608 153.115147,13.7454551 C153.475149,12.6654497 153.940145,11.532961 154.510147,10.3479551 C155.08015,9.16294915 155.800143,8.21045868 156.670147,7.49045508 C157.600152,6.74045133 158.620142,6.45545418 159.730147,6.63545508 C160.840153,6.81545598 161.755144,7.34045073 162.475147,8.21045508 C162.92515,8.72045763 163.247646,9.27545208 163.442647,9.87545508 C163.637648,10.4754581 163.720148,11.0904519 163.690147,11.7204551 C164.17015,11.9604563 164.500147,12.3654522 164.680147,12.9354551 C165.16015,14.1954614 165.370148,15.4929484 165.310147,16.8279551 C165.250147,18.1629618 165.01015,19.4754486 164.590147,20.7654551 C164.200146,21.8454605 163.71265,22.9329496 163.127647,24.0279551 C162.542645,25.1229606 161.755152,26.0154516 160.765147,26.7054551 C159.805143,27.3354582 158.747653,27.6354552 157.592647,27.6054551 C156.437642,27.5754549 155.425152,27.170459 154.555147,26.3904551 Z M157.435147,14.6004551 C157.045146,15.6504603 156.760148,16.7604492 156.580147,17.9304551 C156.400147,19.1004609 156.430146,20.2554494 156.670147,21.3954551 C156.700148,21.5454558 156.737647,21.7179541 156.782647,21.9129551 C156.827648,22.1079561 156.887647,22.3029541 156.962647,22.4979551 C157.037648,22.6929561 157.142647,22.8654543 157.277647,23.0154551 C157.412648,23.1654558 157.570147,23.2554549 157.750147,23.2854551 C157.960149,23.3154552 158.170146,23.2554558 158.380147,23.1054551 C158.590149,22.9554543 158.777647,22.7754561 158.942647,22.5654551 C159.107648,22.355454 159.250147,22.1304563 159.370147,21.8904551 C159.490148,21.6504539 159.595147,21.4554558 159.685147,21.3054551 C160.16515,20.3454503 160.525146,19.3404603 160.765147,18.2904551 C161.005149,17.2404498 161.020149,16.1904603 160.810147,15.1404551 C160.180144,14.9904543 159.670149,14.6079582 159.280147,13.9929551 C158.890146,13.377952 158.890146,12.6954588 159.280147,11.9454551 C159.400148,11.735454 159.430148,11.5854555 159.370147,11.4954551 C159.310147,11.4054546 159.265148,11.270456 159.235147,11.0904551 C159.175147,11.1504554 159.115148,11.2404545 159.055147,11.3604551 C158.785146,11.9004578 158.500149,12.4254525 158.200147,12.9354551 C157.900146,13.4454576 157.645149,14.0004521 157.435147,14.6004551 Z M171.700147,26.7504551 C171.550147,27.3804582 171.25015,27.8154539 170.800147,28.0554551 C170.350145,28.2954563 169.88515,28.3704555 169.405147,28.2804551 C168.925145,28.1904546 168.482649,27.9654569 168.077647,27.6054551 C167.672645,27.2454533 167.455148,26.7654581 167.425147,26.1654551 C167.215146,23.6154423 167.087648,21.0654678 167.042647,18.5154551 C166.997647,15.9654423 167.050147,13.4154678 167.200147,10.8654551 C167.230148,10.1754516 167.485145,9.6579568 167.965147,9.31295508 C168.44515,8.96795335 168.955145,8.79545508 169.495147,8.79545508 C170.03515,8.79545508 170.522645,8.96795335 170.957647,9.31295508 C171.39265,9.6579568 171.595148,10.1754516 171.565147,10.8654551 C171.505147,11.8254599 171.467648,12.7629505 171.452647,13.6779551 C171.437647,14.5929597 171.415148,15.5304503 171.385147,16.4904551 C171.685149,16.0104527 172.030146,15.5304575 172.420147,15.0504551 C172.84015,14.4804522 173.380144,13.7904591 174.040147,12.9804551 C174.700151,12.170451 175.420144,11.4654581 176.200147,10.8654551 C176.980151,10.2654521 177.790143,9.8829559 178.630147,9.71795508 C179.470152,9.55295425 180.295143,9.81545163 181.105147,10.5054551 C181.64515,10.9554573 182.042646,11.5104518 182.297647,12.1704551 C182.552649,12.8304584 182.725147,13.5279514 182.815147,14.2629551 C182.905148,14.9979588 182.935148,15.7404513 182.905147,16.4904551 C182.875147,17.2404588 182.845148,17.9304519 182.815147,18.5604551 C182.755147,20.0004623 182.642648,21.4479478 182.477647,22.9029551 C182.312647,24.3579624 182.065149,25.8054479 181.735147,27.2454551 C181.585147,27.9354585 181.25515,28.392954 180.745147,28.6179551 C180.235145,28.8429562 179.71765,28.8804558 179.192647,28.7304551 C178.667645,28.5804543 178.225149,28.2804573 177.865147,27.8304551 C177.505146,27.3804528 177.400147,26.8104585 177.550147,26.1204551 C177.940149,24.2004455 178.210147,22.250465 178.360147,20.2704551 C178.420148,19.4004507 178.487647,18.4929598 178.562647,17.5479551 C178.637648,16.6029504 178.600148,15.6954594 178.450147,14.8254551 C178.210146,15.0654563 177.977649,15.290454 177.752647,15.5004551 C177.527646,15.7104561 177.385148,15.8454548 177.325147,15.9054551 C176.845145,16.4154576 176.402649,16.9404524 175.997647,17.4804551 C175.592645,18.0204578 175.195149,18.5904521 174.805147,19.1904551 C173.36514,21.5304668 172.330151,24.0504416 171.700147,26.7504551 Z M1.03764746,46.8054551 C1.09764776,46.1154516 1.37514498,45.5979568 1.87014746,45.2529551 C2.36514993,44.9079534 2.88264476,44.7354551 3.42264746,44.7354551 C3.96265016,44.7354551 4.44264536,44.9079534 4.86264746,45.2529551 C5.28264956,45.5979568 5.46264776,46.1154516 5.40264746,46.8054551 C4.98264536,51.4254782 4.69014828,56.0154323 4.52514746,60.5754551 C4.36014663,65.1354779 4.30764716,69.7404318 4.36764746,74.3904551 C4.36764746,75.0804585 4.15014963,75.6054533 3.71514746,75.9654551 C3.28014528,76.3254569 2.79265016,76.5054551 2.25264746,76.5054551 C1.71264476,76.5054551 1.21014978,76.3254569 0.745147458,75.9654551 C0.280145133,75.6054533 0.0476474578,75.0804585 0.0476474578,74.3904551 C-0.0423529922,69.7404318 -0.00485336719,65.1354779 0.160147458,60.5754551 C0.325148283,56.0154323 0.617645358,51.4254782 1.03764746,46.8054551 Z M7.83264746,74.3904551 C7.05264356,73.7004516 6.49764911,72.8829598 6.16764746,71.9379551 C5.83764581,70.9929504 5.62764791,70.0404599 5.53764746,69.0804551 C5.41764686,67.8204488 5.43264671,66.5679613 5.58264746,65.3229551 C5.73264821,64.0779489 6.00264551,62.8854608 6.39264746,61.7454551 C6.75264926,60.6654497 7.21764461,59.532961 7.78764746,58.3479551 C8.35765031,57.1629492 9.07764311,56.2104587 9.94764746,55.4904551 C10.8776521,54.7404513 11.8976419,54.4554542 13.0076475,54.6354551 C14.117653,54.815456 15.0326439,55.3404507 15.7526475,56.2104551 C16.2026497,56.7204576 16.5251465,57.2754521 16.7201475,57.8754551 C16.9151484,58.4754581 16.9976476,59.0904519 16.9676475,59.7204551 C17.4476499,59.9604563 17.7776466,60.3654522 17.9576475,60.9354551 C18.4376499,62.1954614 18.6476478,63.4929484 18.5876475,64.8279551 C18.5276472,66.1629618 18.2876496,67.4754486 17.8676475,68.7654551 C17.4776455,69.8454605 16.9901504,70.9329496 16.4051475,72.0279551 C15.8201445,73.1229606 15.0326524,74.0154516 14.0426475,74.7054551 C13.0826427,75.3354582 12.0251532,75.6354552 10.8701475,75.6054551 C9.71514168,75.5754549 8.70265181,75.170459 7.83264746,74.3904551 Z M10.7126475,62.6004551 C10.3226455,63.6504603 10.0376484,64.7604492 9.85764746,65.9304551 C9.67764656,67.1004609 9.70764626,68.2554494 9.94764746,69.3954551 C9.97764761,69.5454558 10.0151472,69.7179541 10.0601475,69.9129551 C10.1051477,70.1079561 10.1651471,70.3029541 10.2401475,70.4979551 C10.3151478,70.6929561 10.4201468,70.8654543 10.5551475,71.0154551 C10.6901481,71.1654558 10.8476466,71.2554549 11.0276475,71.2854551 C11.2376485,71.3154552 11.4476464,71.2554558 11.6576475,71.1054551 C11.8676485,70.9554543 12.0551466,70.7754561 12.2201475,70.5654551 C12.3851483,70.355454 12.5276469,70.1304563 12.6476475,69.8904551 C12.7676481,69.6504539 12.872647,69.4554558 12.9626475,69.3054551 C13.4426499,68.3454503 13.8026463,67.3404603 14.0426475,66.2904551 C14.2826487,65.2404498 14.2976485,64.1904603 14.0876475,63.1404551 C13.4576443,62.9904543 12.9476494,62.6079582 12.5576475,61.9929551 C12.1676455,61.377952 12.1676455,60.6954588 12.5576475,59.9454551 C12.6776481,59.735454 12.7076478,59.5854555 12.6476475,59.4954551 C12.5876472,59.4054546 12.5426476,59.270456 12.5126475,59.0904551 C12.4526472,59.1504554 12.3926478,59.2404545 12.3326475,59.3604551 C12.0626461,59.9004578 11.777649,60.4254525 11.4776475,60.9354551 C11.177646,61.4454576 10.9226485,62.0004521 10.7126475,62.6004551 Z M23.9426475,70.2054551 C22.5926407,69.4254512 21.6176505,68.3979615 21.0176475,67.1229551 C20.4176445,65.8479487 20.2826458,64.4454627 20.6126475,62.9154551 C20.7626482,62.1654513 21.0326455,61.4454585 21.4226475,60.7554551 C21.8126494,60.0654516 22.2851447,59.4429579 22.8401475,58.8879551 C23.3951502,58.3329523 24.017644,57.8754569 24.7076475,57.5154551 C25.3976509,57.1554533 26.1326436,56.9304555 26.9126475,56.8404551 C27.6926514,56.7504546 28.427644,56.8254539 29.1176475,57.0654551 C29.8076509,57.3054563 30.4151448,57.6579528 30.9401475,58.1229551 C31.4651501,58.5879574 31.8926458,59.1504518 32.2226475,59.8104551 C32.5526491,60.4704584 32.7476472,61.1754513 32.8076475,61.9254551 C32.8676478,62.6154585 32.6801496,63.1404533 32.2451475,63.5004551 C31.8101453,63.8604569 31.3226502,64.0404551 30.7826475,64.0404551 C30.2426448,64.0404551 29.7326499,63.8604569 29.2526475,63.5004551 C28.7726451,63.1404533 28.5026478,62.6154585 28.4426475,61.9254551 C28.4126473,61.4754528 28.2626488,61.2204554 27.9926475,61.1604551 C27.7226461,61.1004548 27.4226491,61.1379544 27.0926475,61.2729551 C26.7626458,61.4079558 26.440149,61.6029538 26.1251475,61.8579551 C25.8101459,62.1129564 25.5926481,62.3154543 25.4726475,62.4654551 C25.1426458,62.8854572 24.9101481,63.3879522 24.7751475,63.9729551 C24.6401468,64.557958 24.7376458,65.0904527 25.0676475,65.5704551 C25.367649,66.0504575 25.8176445,66.4104539 26.4176475,66.6504551 C27.0176505,66.8904563 27.5576451,67.1304539 28.0376475,67.3704551 C28.6376505,67.7004567 29.2076448,68.0454533 29.7476475,68.4054551 C30.2876502,68.7654569 30.7226458,69.2454521 31.0526475,69.8454551 C31.4126493,70.4754582 31.6001474,71.1129519 31.6151475,71.7579551 C31.6301475,72.4029583 31.5026488,73.0104522 31.2326475,73.5804551 C30.9626461,74.1504579 30.5951498,74.6754527 30.1301475,75.1554551 C29.6651451,75.6354575 29.1476503,76.0254536 28.5776475,76.3254551 C27.9776445,76.6554567 27.3401508,76.9104542 26.6651475,77.0904551 C25.9901441,77.270456 25.3151508,77.3754549 24.6401475,77.4054551 C23.9651441,77.4354552 23.2901508,77.3679559 22.6151475,77.2029551 C21.9401441,77.0379543 21.3176503,76.760457 20.7476475,76.3704551 C20.1476445,75.9804531 19.8176478,75.492958 19.7576475,74.9079551 C19.6976472,74.3229522 19.8026461,73.7904575 20.0726475,73.3104551 C20.3426488,72.8304527 20.7401448,72.4929561 21.2651475,72.2979551 C21.7901501,72.1029541 22.3526445,72.2004531 22.9526475,72.5904551 C23.2826491,72.8304563 23.6126458,72.9729549 23.9426475,73.0179551 C24.2726491,73.0629553 24.6476454,73.0554554 25.0676475,72.9954551 C25.1576479,72.9654549 25.3301462,72.9204554 25.5851475,72.8604551 C25.8401487,72.8004548 26.0951462,72.7179556 26.3501475,72.6129551 C26.6051487,72.5079546 26.8301465,72.3954557 27.0251475,72.2754551 C27.2201484,72.1554545 27.3026476,72.0354557 27.2726475,71.9154551 C27.2426473,71.7954545 27.077649,71.6529559 26.7776475,71.4879551 C26.477646,71.3229543 26.1401493,71.1579559 25.7651475,70.9929551 C25.3901456,70.8279543 25.0226493,70.6704558 24.6626475,70.5204551 C24.3026457,70.3704543 24.0626481,70.2654554 23.9426475,70.2054551 Z M58.7276475,63.1404551 C59.1476496,62.6904528 59.5976451,62.2179576 60.0776475,61.7229551 C60.5576499,61.2279526 61.0676448,60.7479574 61.6076475,60.2829551 C62.1476502,59.8179528 62.7026446,59.4054569 63.2726475,59.0454551 C63.8426503,58.6854533 64.4276445,58.415456 65.0276475,58.2354551 C66.1676532,57.9054534 67.0601442,57.9654528 67.7051475,58.4154551 C68.3501507,58.8654573 68.822646,59.5404506 69.1226475,60.4404551 C69.422649,61.3404596 69.5801474,62.397949 69.5951475,63.6129551 C69.6101475,64.8279612 69.5576481,66.0279492 69.4376475,67.2129551 C69.3176469,68.397961 69.1676484,69.4854501 68.9876475,70.4754551 C68.8076466,71.46546 68.6726479,72.2004527 68.5826475,72.6804551 C68.4326467,73.3704585 68.10265,73.827954 67.5926475,74.0529551 C67.0826449,74.2779562 66.5651501,74.3154558 66.0401475,74.1654551 C65.5151448,74.0154543 65.0726493,73.7079574 64.7126475,73.2429551 C64.3526457,72.7779528 64.2476467,72.2004585 64.3976475,71.5104551 C64.8776499,69.2304437 65.1476472,66.8904671 65.2076475,64.4904551 C65.2076475,64.4004546 65.1926476,64.2354563 65.1626475,63.9954551 C65.1326473,63.7554539 65.1026476,63.5004564 65.0726475,63.2304551 C64.8026461,63.410456 64.5476487,63.6204539 64.3076475,63.8604551 C62.7776398,65.1204614 61.4501531,66.5154474 60.3251475,68.0454551 C59.2001418,69.5754627 58.2026518,71.2104464 57.3326475,72.9504551 C57.0926463,73.4304575 56.7326499,73.7454543 56.2526475,73.8954551 C55.7726451,74.0454558 55.3001498,74.0604557 54.8351475,73.9404551 C54.3701451,73.8204545 53.980149,73.5804569 53.6651475,73.2204551 C53.3501459,72.8604533 53.2226472,72.4104578 53.2826475,71.8704551 C53.4326482,70.5804486 53.5751468,69.2979615 53.7101475,68.0229551 C53.8451481,66.7479487 53.9876467,65.4654615 54.1376475,64.1754551 C54.1376475,64.1154548 54.1451474,64.0104558 54.1601475,63.8604551 C54.1751475,63.7104543 54.1976473,63.5154563 54.2276475,63.2754551 C52.9076409,64.9254633 51.8276517,66.7104455 50.9876475,68.6304551 C50.1476433,70.5504647 49.5026497,72.5304449 49.0526475,74.5704551 C48.9326469,75.0804576 48.6626496,75.4629538 48.2426475,75.7179551 C47.8226454,75.9729564 47.3726499,76.107955 46.8926475,76.1229551 C46.4126451,76.1379552 45.9701495,76.0179564 45.5651475,75.7629551 C45.1601454,75.5079538 44.9126479,75.1104578 44.8226475,74.5704551 C44.5826463,73.0104473 44.4551475,71.4204632 44.4401475,69.8004551 C44.4251474,68.180447 44.4701469,66.5679631 44.5751475,64.9629551 C44.680148,63.3579471 44.8226466,61.7529631 45.0026475,60.1479551 C45.1826484,58.5429471 45.3326469,56.945463 45.4526475,55.3554551 C45.5126478,54.6654516 45.7826451,54.1479568 46.2626475,53.8029551 C46.7426499,53.4579534 47.2526448,53.2854551 47.7926475,53.2854551 C48.3326502,53.2854551 48.8201453,53.4579534 49.2551475,53.8029551 C49.6901496,54.1479568 49.8776478,54.6654516 49.8176475,55.3554551 C49.727647,56.6154614 49.630148,57.852949 49.5251475,59.0679551 C49.4201469,60.2829612 49.3226479,61.5054489 49.2326475,62.7354551 C49.8326505,61.7754503 50.4851439,60.8379597 51.1901475,59.9229551 C51.895151,59.0079505 52.6826431,58.2504581 53.5526475,57.6504551 C54.2426509,57.2004528 54.9101442,56.9679552 55.5551475,56.9529551 C56.2001507,56.937955 56.770145,57.1029534 57.2651475,57.4479551 C57.7601499,57.7929568 58.150146,58.272952 58.4351475,58.8879551 C58.7201489,59.5029582 58.8626475,60.1854513 58.8626475,60.9354551 C58.8626475,61.6554587 58.8176479,62.3904513 58.7276475,63.1404551 Z M73.5776475,74.3904551 C72.7976436,73.7004516 72.2426491,72.8829598 71.9126475,71.9379551 C71.5826458,70.9929504 71.3726479,70.0404599 71.2826475,69.0804551 C71.1626469,67.8204488 71.1776467,66.5679613 71.3276475,65.3229551 C71.4776482,64.0779489 71.7476455,62.8854608 72.1376475,61.7454551 C72.4976493,60.6654497 72.9626446,59.532961 73.5326475,58.3479551 C74.1026503,57.1629492 74.8226431,56.2104587 75.6926475,55.4904551 C76.6226521,54.7404513 77.6426419,54.4554542 78.7526475,54.6354551 C79.862653,54.815456 80.7776439,55.3404507 81.4976475,56.2104551 C81.9476497,56.7204576 82.2701465,57.2754521 82.4651475,57.8754551 C82.6601484,58.4754581 82.7426476,59.0904519 82.7126475,59.7204551 C83.1926499,59.9604563 83.5226466,60.3654522 83.7026475,60.9354551 C84.1826499,62.1954614 84.3926478,63.4929484 84.3326475,64.8279551 C84.2726472,66.1629618 84.0326496,67.4754486 83.6126475,68.7654551 C83.2226455,69.8454605 82.7351504,70.9329496 82.1501475,72.0279551 C81.5651445,73.1229606 80.7776524,74.0154516 79.7876475,74.7054551 C78.8276427,75.3354582 77.7701532,75.6354552 76.6151475,75.6054551 C75.4601417,75.5754549 74.4476518,75.170459 73.5776475,74.3904551 Z M76.4576475,62.6004551 C76.0676455,63.6504603 75.7826484,64.7604492 75.6026475,65.9304551 C75.4226466,67.1004609 75.4526463,68.2554494 75.6926475,69.3954551 C75.7226476,69.5454558 75.7601472,69.7179541 75.8051475,69.9129551 C75.8501477,70.1079561 75.9101471,70.3029541 75.9851475,70.4979551 C76.0601478,70.6929561 76.1651468,70.8654543 76.3001475,71.0154551 C76.4351481,71.1654558 76.5926466,71.2554549 76.7726475,71.2854551 C76.9826485,71.3154552 77.1926464,71.2554558 77.4026475,71.1054551 C77.6126485,70.9554543 77.8001466,70.7754561 77.9651475,70.5654551 C78.1301483,70.355454 78.2726469,70.1304563 78.3926475,69.8904551 C78.5126481,69.6504539 78.617647,69.4554558 78.7076475,69.3054551 C79.1876499,68.3454503 79.5476463,67.3404603 79.7876475,66.2904551 C80.0276487,65.2404498 80.0426485,64.1904603 79.8326475,63.1404551 C79.2026443,62.9904543 78.6926494,62.6079582 78.3026475,61.9929551 C77.9126455,61.377952 77.9126455,60.6954588 78.3026475,59.9454551 C78.4226481,59.735454 78.4526478,59.5854555 78.3926475,59.4954551 C78.3326472,59.4054546 78.2876476,59.270456 78.2576475,59.0904551 C78.1976472,59.1504554 78.1376478,59.2404545 78.0776475,59.3604551 C77.8076461,59.9004578 77.522649,60.4254525 77.2226475,60.9354551 C76.922646,61.4454576 76.6676485,62.0004521 76.4576475,62.6004551 Z M90.7226475,74.7504551 C90.5726467,75.3804582 90.2726497,75.8154539 89.8226475,76.0554551 C89.3726452,76.2954563 88.9076499,76.3704555 88.4276475,76.2804551 C87.9476451,76.1904546 87.5051495,75.9654569 87.1001475,75.6054551 C86.6951454,75.2454533 86.4776476,74.7654581 86.4476475,74.1654551 C86.2376464,71.6154423 86.1101477,69.0654678 86.0651475,66.5154551 C86.0201472,63.9654423 86.0726467,61.4154678 86.2226475,58.8654551 C86.2526476,58.1754516 86.5076451,57.6579568 86.9876475,57.3129551 C87.4676499,56.9679534 87.9776448,56.7954551 88.5176475,56.7954551 C89.0576502,56.7954551 89.5451453,56.9679534 89.9801475,57.3129551 C90.4151496,57.6579568 90.6176476,58.1754516 90.5876475,58.8654551 C90.5276472,59.8254599 90.4901475,60.7629505 90.4751475,61.6779551 C90.4601474,62.5929597 90.4376476,63.5304503 90.4076475,64.4904551 C90.707649,64.0104527 91.0526455,63.5304575 91.4426475,63.0504551 C91.8626496,62.4804522 92.4026442,61.7904591 93.0626475,60.9804551 C93.7226508,60.170451 94.4426436,59.4654581 95.2226475,58.8654551 C96.0026514,58.2654521 96.8126433,57.8829559 97.6526475,57.7179551 C98.4926517,57.5529543 99.3176434,57.8154516 100.127647,58.5054551 C100.66765,58.9554573 101.065146,59.5104518 101.320147,60.1704551 C101.575149,60.8304584 101.747647,61.5279514 101.837647,62.2629551 C101.927648,62.9979588 101.957648,63.7404513 101.927647,64.4904551 C101.897647,65.2404588 101.867648,65.9304519 101.837647,66.5604551 C101.777647,68.0004623 101.665148,69.4479478 101.500147,70.9029551 C101.335147,72.3579624 101.087649,73.8054479 100.757647,75.2454551 C100.607647,75.9354585 100.27765,76.392954 99.7676475,76.6179551 C99.2576449,76.8429562 98.7401501,76.8804558 98.2151475,76.7304551 C97.6901448,76.5804543 97.2476493,76.2804573 96.8876475,75.8304551 C96.5276457,75.3804528 96.4226467,74.8104585 96.5726475,74.1204551 C96.9626494,72.2004455 97.2326467,70.250465 97.3826475,68.2704551 C97.4426478,67.4004507 97.5101471,66.4929598 97.5851475,65.5479551 C97.6601478,64.6029504 97.6226482,63.6954594 97.4726475,62.8254551 C97.2326463,63.0654563 97.0001486,63.290454 96.7751475,63.5004551 C96.5501463,63.7104561 96.4076478,63.8454548 96.3476475,63.9054551 C95.8676451,64.4154576 95.4251495,64.9404524 95.0201475,65.4804551 C94.6151454,66.0204578 94.2176494,66.5904521 93.8276475,67.1904551 C92.3876403,69.5304668 91.3526506,72.0504416 90.7226475,74.7504551 Z M107.777647,70.2054551 C106.427641,69.4254512 105.45265,68.3979615 104.852647,67.1229551 C104.252644,65.8479487 104.117646,64.4454627 104.447647,62.9154551 C104.597648,62.1654513 104.867646,61.4454585 105.257647,60.7554551 C105.647649,60.0654516 106.120145,59.4429579 106.675147,58.8879551 C107.23015,58.3329523 107.852644,57.8754569 108.542647,57.5154551 C109.232651,57.1554533 109.967644,56.9304555 110.747647,56.8404551 C111.527651,56.7504546 112.262644,56.8254539 112.952647,57.0654551 C113.642651,57.3054563 114.250145,57.6579528 114.775147,58.1229551 C115.30015,58.5879574 115.727646,59.1504518 116.057647,59.8104551 C116.387649,60.4704584 116.582647,61.1754513 116.642647,61.9254551 C116.702648,62.6154585 116.51515,63.1404533 116.080147,63.5004551 C115.645145,63.8604569 115.15765,64.0404551 114.617647,64.0404551 C114.077645,64.0404551 113.56765,63.8604569 113.087647,63.5004551 C112.607645,63.1404533 112.337648,62.6154585 112.277647,61.9254551 C112.247647,61.4754528 112.097649,61.2204554 111.827647,61.1604551 C111.557646,61.1004548 111.257649,61.1379544 110.927647,61.2729551 C110.597646,61.4079558 110.275149,61.6029538 109.960147,61.8579551 C109.645146,62.1129564 109.427648,62.3154543 109.307647,62.4654551 C108.977646,62.8854572 108.745148,63.3879522 108.610147,63.9729551 C108.475147,64.557958 108.572646,65.0904527 108.902647,65.5704551 C109.202649,66.0504575 109.652644,66.4104539 110.252647,66.6504551 C110.85265,66.8904563 111.392645,67.1304539 111.872647,67.3704551 C112.47265,67.7004567 113.042645,68.0454533 113.582647,68.4054551 C114.12265,68.7654569 114.557646,69.2454521 114.887647,69.8454551 C115.247649,70.4754582 115.435147,71.1129519 115.450147,71.7579551 C115.465148,72.4029583 115.337649,73.0104522 115.067647,73.5804551 C114.797646,74.1504579 114.43015,74.6754527 113.965147,75.1554551 C113.500145,75.6354575 112.98265,76.0254536 112.412647,76.3254551 C111.812644,76.6554567 111.175151,76.9104542 110.500147,77.0904551 C109.825144,77.270456 109.150151,77.3754549 108.475147,77.4054551 C107.800144,77.4354552 107.125151,77.3679559 106.450147,77.2029551 C105.775144,77.0379543 105.15265,76.760457 104.582647,76.3704551 C103.982644,75.9804531 103.652648,75.492958 103.592647,74.9079551 C103.532647,74.3229522 103.637646,73.7904575 103.907647,73.3104551 C104.177649,72.8304527 104.575145,72.4929561 105.100147,72.2979551 C105.62515,72.1029541 106.187644,72.2004531 106.787647,72.5904551 C107.117649,72.8304563 107.447646,72.9729549 107.777647,73.0179551 C108.107649,73.0629553 108.482645,73.0554554 108.902647,72.9954551 C108.992648,72.9654549 109.165146,72.9204554 109.420147,72.8604551 C109.675149,72.8004548 109.930146,72.7179556 110.185147,72.6129551 C110.440149,72.5079546 110.665146,72.3954557 110.860147,72.2754551 C111.055148,72.1554545 111.137648,72.0354557 111.107647,71.9154551 C111.077647,71.7954545 110.912649,71.6529559 110.612647,71.4879551 C110.312646,71.3229543 109.975149,71.1579559 109.600147,70.9929551 C109.225146,70.8279543 108.857649,70.6704558 108.497647,70.5204551 C108.137646,70.3704543 107.897648,70.2654554 107.777647,70.2054551 Z M120.152647,70.6554551 C119.912646,69.4854492 119.755148,68.307961 119.680147,67.1229551 C119.605147,65.9379492 119.597647,64.7454611 119.657647,63.5454551 C119.117645,63.725456 118.62265,63.6804564 118.172647,63.4104551 C117.722645,63.1404537 117.392649,62.7729574 117.182647,62.3079551 C116.972646,61.8429528 116.920147,61.3554576 117.025147,60.8454551 C117.130148,60.3354525 117.452645,59.9154567 117.992647,59.5854551 C118.322649,59.375454 118.645146,59.180456 118.960147,59.0004551 C119.275149,58.8204542 119.597646,58.640456 119.927647,58.4604551 C120.227649,54.9504375 120.632645,51.4404726 121.142647,47.9304551 C121.232648,47.2404516 121.525145,46.7829562 122.020147,46.5579551 C122.51515,46.332954 123.025145,46.2879544 123.550147,46.4229551 C124.07515,46.5579558 124.525146,46.8579528 124.900147,47.3229551 C125.275149,47.7879574 125.417648,48.3654516 125.327647,49.0554551 C124.967646,51.5754677 124.652649,54.0654428 124.382647,56.5254551 C125.072651,56.2854539 125.762644,56.0604561 126.452647,55.8504551 C127.142651,55.640454 127.832644,55.445456 128.522647,55.2654551 C129.212651,55.1154543 129.790145,55.2204533 130.255147,55.5804551 C130.72015,55.9404569 131.027647,56.3829525 131.177647,56.9079551 C131.327648,57.4329577 131.290149,57.9504525 131.065147,58.4604551 C130.840146,58.9704576 130.382651,59.3154542 129.692647,59.4954551 C128.732643,59.7354563 127.780152,60.0054536 126.835147,60.3054551 C125.890143,60.6054566 124.952652,60.9504531 124.022647,61.3404551 C123.992647,62.1504591 123.970148,62.960451 123.955147,63.7704551 C123.940147,64.5804591 123.947647,65.3754512 123.977647,66.1554551 C123.977647,66.6654576 124.000147,67.2504518 124.045147,67.9104551 C124.090148,68.5704584 124.180147,69.2229519 124.315147,69.8679551 C124.450148,70.5129583 124.645146,71.1204522 124.900147,71.6904551 C125.155149,72.2604579 125.522645,72.6954536 126.002647,72.9954551 C126.51265,73.3254567 127.060145,73.4679553 127.645147,73.4229551 C128.23015,73.3779549 128.807645,73.2354563 129.377647,72.9954551 C129.94765,72.7554539 130.502645,72.4629568 131.042647,72.1179551 C131.58265,71.7729534 132.062645,71.4654564 132.482647,71.1954551 C133.05265,70.8054531 133.600145,70.715454 134.125147,70.9254551 C134.65015,71.1354561 135.055146,71.4729528 135.340147,71.9379551 C135.625149,72.4029574 135.730148,72.9279522 135.655147,73.5129551 C135.580147,74.097958 135.25765,74.5854531 134.687647,74.9754551 C133.997644,75.4254573 133.277651,75.8529531 132.527647,76.2579551 C131.777644,76.6629571 131.005151,77.0004537 130.210147,77.2704551 C129.415143,77.5404564 128.605152,77.6979549 127.780147,77.7429551 C126.955143,77.7879553 126.122652,77.6754564 125.282647,77.4054551 C123.75264,76.9254527 122.590151,76.0479615 121.795147,74.7729551 C121.000143,73.4979487 120.452649,72.1254624 120.152647,70.6554551 Z M139.997647,77.4954551 C139.997647,78.2154587 139.78015,78.7479534 139.345147,79.0929551 C138.910145,79.4379568 138.43015,79.6104551 137.905147,79.6104551 C137.380145,79.6104551 136.88515,79.4304569 136.420147,79.0704551 C135.955145,78.7104533 135.692648,78.1854585 135.632647,77.4954551 C135.362646,74.3454393 135.182648,71.2104707 135.092647,68.0904551 C135.002647,64.9704395 135.017647,61.8354708 135.137647,58.6854551 C135.167648,57.9654515 135.415145,57.4329568 135.880147,57.0879551 C136.34515,56.7429534 136.847645,56.5704551 137.387647,56.5704551 C137.92765,56.5704551 138.415145,56.7429534 138.850147,57.0879551 C139.28515,57.4329568 139.487648,57.9654515 139.457647,58.6854551 C139.427647,59.3454584 139.412647,59.9979519 139.412647,60.6429551 L139.412647,62.6004551 C139.592648,62.3004536 139.780146,62.0154564 139.975147,61.7454551 C140.170148,61.4754537 140.372646,61.1904566 140.582647,60.8904551 C140.972649,60.3804525 141.422645,59.8779576 141.932647,59.3829551 C142.44265,58.8879526 142.982645,58.4679568 143.552647,58.1229551 C144.12265,57.7779534 144.737644,57.5454557 145.397647,57.4254551 C146.057651,57.3054545 146.747644,57.3654539 147.467647,57.6054551 C148.337652,57.9054566 148.967646,58.3404522 149.357647,58.9104551 C149.747649,59.4804579 150.002647,60.1179516 150.122647,60.8229551 C150.242648,61.5279586 150.295148,62.2704512 150.280147,63.0504551 C150.265147,63.830459 150.287647,64.5804515 150.347647,65.3004551 C150.407648,65.9904585 150.22765,66.5079534 149.807647,66.8529551 C149.387645,67.1979568 148.90765,67.3704551 148.367647,67.3704551 C147.827645,67.3704551 147.31015,67.1979568 146.815147,66.8529551 C146.320145,66.5079534 146.042648,65.9904585 145.982647,65.3004551 C145.952647,64.8204527 145.997647,64.2579583 146.117647,63.6129551 C146.237648,62.9679519 146.207648,62.4354572 146.027647,62.0154551 L145.937647,61.7454551 C145.937647,61.7754552 145.892648,61.8054549 145.802647,61.8354551 C145.622647,61.8654552 145.427649,61.985454 145.217647,62.1954551 C145.007646,62.4054561 144.857648,62.5704545 144.767647,62.6904551 C144.167644,63.2904581 143.64265,63.9504515 143.192647,64.6704551 C142.742645,65.3904587 142.337649,66.1404512 141.977647,66.9204551 C141.227644,68.5704633 140.710149,70.2954461 140.425147,72.0954551 C140.140146,73.8954641 139.997647,75.6954461 139.997647,77.4954551 Z M158.042647,72.5004551 C158.282649,72.3804545 158.492647,72.1854564 158.672647,71.9154551 C158.852648,71.6454537 159.017647,71.3529567 159.167647,71.0379551 C159.317648,70.7229535 159.452647,70.4154566 159.572647,70.1154551 C159.692648,69.8154536 159.797647,69.5454563 159.887647,69.3054551 C160.097649,68.7354522 160.292647,68.1654579 160.472647,67.5954551 C160.652648,67.0254522 160.817647,66.4554579 160.967647,65.8854551 C161.297649,64.5654485 161.545147,63.2454617 161.710147,61.9254551 C161.875148,60.6054485 161.822649,59.2704618 161.552647,57.9204551 C161.402647,57.2604518 161.507646,56.6979574 161.867647,56.2329551 C162.227649,55.7679528 162.670145,55.4604558 163.195147,55.3104551 C163.72015,55.1604543 164.237645,55.197954 164.747647,55.4229551 C165.25765,55.6479562 165.587647,56.1054516 165.737647,56.7954551 C166.15765,58.8354653 166.232649,60.8754449 165.962647,62.9154551 C165.692646,64.9554653 165.242651,66.9504453 164.612647,68.9004551 C164.372646,69.6504588 164.095149,70.437951 163.780147,71.2629551 C163.465146,72.0879592 163.08265,72.8829513 162.632647,73.6479551 C162.182645,74.4129589 161.65765,75.0879522 161.057647,75.6729551 C160.457644,76.257958 159.737652,76.6854537 158.897647,76.9554551 C157.607641,77.345457 156.527652,77.2929576 155.657647,76.7979551 C154.787643,76.3029526 154.09015,75.5379603 153.565147,74.5029551 C153.040145,73.4679499 152.665149,72.2529621 152.440147,70.8579551 C152.215146,69.4629481 152.072648,68.0679621 152.012647,66.6729551 C151.952647,65.2779481 151.952647,63.9804611 152.012647,62.7804551 C152.072648,61.5804491 152.147647,60.6354585 152.237647,59.9454551 C152.327648,59.3454521 152.552646,58.8279573 152.912647,58.3929551 C153.272649,57.9579529 153.782644,57.7404551 154.442647,57.7404551 C154.712649,57.7404551 154.982646,57.8004545 155.252647,57.9204551 C155.522649,58.0404557 155.762646,58.1979541 155.972647,58.3929551 C156.182649,58.5879561 156.347647,58.8204537 156.467647,59.0904551 C156.587648,59.3604564 156.632648,59.6454536 156.602647,59.9454551 C156.242646,62.6154684 156.212646,65.255442 156.512647,67.8654551 C156.572648,68.4654581 156.655147,69.072952 156.760147,69.6879551 C156.865148,70.3029582 156.992647,70.9104521 157.142647,71.5104551 C157.262648,71.900457 157.352647,72.2154539 157.412647,72.4554551 C157.472648,72.6954563 157.682646,72.7104561 158.042647,72.5004551 Z M169.832647,74.3904551 C169.052644,73.7004516 168.497649,72.8829598 168.167647,71.9379551 C167.837646,70.9929504 167.627648,70.0404599 167.537647,69.0804551 C167.417647,67.8204488 167.432647,66.5679613 167.582647,65.3229551 C167.732648,64.0779489 168.002646,62.8854608 168.392647,61.7454551 C168.752649,60.6654497 169.217645,59.532961 169.787647,58.3479551 C170.35765,57.1629492 171.077643,56.2104587 171.947647,55.4904551 C172.877652,54.7404513 173.897642,54.4554542 175.007647,54.6354551 C176.117653,54.815456 177.032644,55.3404507 177.752647,56.2104551 C178.20265,56.7204576 178.525146,57.2754521 178.720147,57.8754551 C178.915148,58.4754581 178.997648,59.0904519 178.967647,59.7204551 C179.44765,59.9604563 179.777647,60.3654522 179.957647,60.9354551 C180.43765,62.1954614 180.647648,63.4929484 180.587647,64.8279551 C180.527647,66.1629618 180.28765,67.4754486 179.867647,68.7654551 C179.477646,69.8454605 178.99015,70.9329496 178.405147,72.0279551 C177.820145,73.1229606 177.032652,74.0154516 176.042647,74.7054551 C175.082643,75.3354582 174.025153,75.6354552 172.870147,75.6054551 C171.715142,75.5754549 170.702652,75.170459 169.832647,74.3904551 Z M172.712647,62.6004551 C172.322646,63.6504603 172.037648,64.7604492 171.857647,65.9304551 C171.677647,67.1004609 171.707646,68.2554494 171.947647,69.3954551 C171.977648,69.5454558 172.015147,69.7179541 172.060147,69.9129551 C172.105148,70.1079561 172.165147,70.3029541 172.240147,70.4979551 C172.315148,70.6929561 172.420147,70.8654543 172.555147,71.0154551 C172.690148,71.1654558 172.847647,71.2554549 173.027647,71.2854551 C173.237649,71.3154552 173.447646,71.2554558 173.657647,71.1054551 C173.867649,70.9554543 174.055147,70.7754561 174.220147,70.5654551 C174.385148,70.355454 174.527647,70.1304563 174.647647,69.8904551 C174.767648,69.6504539 174.872647,69.4554558 174.962647,69.3054551 C175.44265,68.3454503 175.802646,67.3404603 176.042647,66.2904551 C176.282649,65.2404498 176.297649,64.1904603 176.087647,63.1404551 C175.457644,62.9904543 174.947649,62.6079582 174.557647,61.9929551 C174.167646,61.377952 174.167646,60.6954588 174.557647,59.9454551 C174.677648,59.735454 174.707648,59.5854555 174.647647,59.4954551 C174.587647,59.4054546 174.542648,59.270456 174.512647,59.0904551 C174.452647,59.1504554 174.392648,59.2404545 174.332647,59.3604551 C174.062646,59.9004578 173.777649,60.4254525 173.477647,60.9354551 C173.177646,61.4454576 172.922649,62.0004521 172.712647,62.6004551 Z M185.942647,70.2054551 C184.592641,69.4254512 183.61765,68.3979615 183.017647,67.1229551 C182.417644,65.8479487 182.282646,64.4454627 182.612647,62.9154551 C182.762648,62.1654513 183.032646,61.4454585 183.422647,60.7554551 C183.812649,60.0654516 184.285145,59.4429579 184.840147,58.8879551 C185.39515,58.3329523 186.017644,57.8754569 186.707647,57.5154551 C187.397651,57.1554533 188.132644,56.9304555 188.912647,56.8404551 C189.692651,56.7504546 190.427644,56.8254539 191.117647,57.0654551 C191.807651,57.3054563 192.415145,57.6579528 192.940147,58.1229551 C193.46515,58.5879574 193.892646,59.1504518 194.222647,59.8104551 C194.552649,60.4704584 194.747647,61.1754513 194.807647,61.9254551 C194.867648,62.6154585 194.68015,63.1404533 194.245147,63.5004551 C193.810145,63.8604569 193.32265,64.0404551 192.782647,64.0404551 C192.242645,64.0404551 191.73265,63.8604569 191.252647,63.5004551 C190.772645,63.1404533 190.502648,62.6154585 190.442647,61.9254551 C190.412647,61.4754528 190.262649,61.2204554 189.992647,61.1604551 C189.722646,61.1004548 189.422649,61.1379544 189.092647,61.2729551 C188.762646,61.4079558 188.440149,61.6029538 188.125147,61.8579551 C187.810146,62.1129564 187.592648,62.3154543 187.472647,62.4654551 C187.142646,62.8854572 186.910148,63.3879522 186.775147,63.9729551 C186.640147,64.557958 186.737646,65.0904527 187.067647,65.5704551 C187.367649,66.0504575 187.817644,66.4104539 188.417647,66.6504551 C189.01765,66.8904563 189.557645,67.1304539 190.037647,67.3704551 C190.63765,67.7004567 191.207645,68.0454533 191.747647,68.4054551 C192.28765,68.7654569 192.722646,69.2454521 193.052647,69.8454551 C193.412649,70.4754582 193.600147,71.1129519 193.615147,71.7579551 C193.630148,72.4029583 193.502649,73.0104522 193.232647,73.5804551 C192.962646,74.1504579 192.59515,74.6754527 192.130147,75.1554551 C191.665145,75.6354575 191.14765,76.0254536 190.577647,76.3254551 C189.977644,76.6554567 189.340151,76.9104542 188.665147,77.0904551 C187.990144,77.270456 187.315151,77.3754549 186.640147,77.4054551 C185.965144,77.4354552 185.290151,77.3679559 184.615147,77.2029551 C183.940144,77.0379543 183.31765,76.760457 182.747647,76.3704551 C182.147644,75.9804531 181.817648,75.492958 181.757647,74.9079551 C181.697647,74.3229522 181.802646,73.7904575 182.072647,73.3104551 C182.342649,72.8304527 182.740145,72.4929561 183.265147,72.2979551 C183.79015,72.1029541 184.352644,72.2004531 184.952647,72.5904551 C185.282649,72.8304563 185.612646,72.9729549 185.942647,73.0179551 C186.272649,73.0629553 186.647645,73.0554554 187.067647,72.9954551 C187.157648,72.9654549 187.330146,72.9204554 187.585147,72.8604551 C187.840149,72.8004548 188.095146,72.7179556 188.350147,72.6129551 C188.605149,72.5079546 188.830146,72.3954557 189.025147,72.2754551 C189.220148,72.1554545 189.302648,72.0354557 189.272647,71.9154551 C189.242647,71.7954545 189.077649,71.6529559 188.777647,71.4879551 C188.477646,71.3229543 188.140149,71.1579559 187.765147,70.9929551 C187.390146,70.8279543 187.022649,70.6704558 186.662647,70.5204551 C186.302646,70.3704543 186.062648,70.2654554 185.942647,70.2054551 Z" id="Cuidadoconlosmonstruos"></path>
                <path d="M9.36366308,31.4027207 C9.06092719,31.4027207 8.78260966,31.3783069 8.52870215,31.3294785 C7.74744824,31.1536964 7.35682715,30.8411995 7.35682715,30.3919785 C7.35682715,30.2161964 7.44471689,30.0208858 7.62049902,29.806041 C7.75721845,29.6400246 7.91834966,29.3910036 8.10389746,29.0589707 C8.59218115,28.1800601 9.04627817,26.4271479 9.46620215,23.8001816 C9.93495449,20.7923541 10.2718652,17.6673853 10.4769443,14.4251816 C10.5062414,13.9368979 10.5355379,13.521863 10.564835,13.1800645 C10.6038977,12.6038897 10.6820219,12.2035031 10.79921,11.9788926 C10.9749921,11.6273283 11.658579,11.3880729 12.8499912,11.2611191 C13.0550704,11.2415878 13.2503809,11.2318223 13.4359287,11.2318223 C13.7581959,11.2318223 14.0560445,11.2611188 14.3294834,11.3197129 C14.7396417,11.3978383 15.0374903,11.671273 15.2230381,12.1400254 C15.4085859,12.6087777 15.5013584,13.429082 15.5013584,14.6009629 C15.5013584,15.9876886 15.4085859,17.7064214 15.2230381,19.7572129 C15.047256,21.6908163 14.8226488,23.4632595 14.54921,25.0745957 C14.0902233,28.0042978 13.3236294,29.8255687 12.2494053,30.5384629 C11.4290887,31.1146376 10.4671842,31.4027207 9.36366308,31.4027207 Z M13.61171,3.92225195 C14.4613236,3.92225195 15.1668829,4.20545224 15.7284092,4.77186133 C16.2899354,5.33827041 16.5413978,6.02185732 16.4828037,6.82264258 C16.4339753,7.62342783 16.0897405,8.30701474 15.4500889,8.87342383 C14.8104372,9.43983291 14.0658158,9.7230332 13.2162021,9.7230332 C12.3763542,9.7230332 11.6732362,9.43983291 11.1068271,8.87342383 C10.5404181,8.30701474 10.2865144,7.62342783 10.3451084,6.82264258 C10.3939368,6.02185732 10.7381716,5.33827041 11.3778232,4.77186133 C12.0174749,4.20545224 12.7620963,3.92225195 13.61171,3.92225195 Z" id=""></path>
                <path d="M202.14296,72.3411973 C201.801161,72.3411973 201.483782,72.3070179 201.190812,72.2386582 C200.780653,72.1605328 200.482805,71.887098 200.297257,71.4183457 C200.111709,70.9495934 200.018937,70.1341718 200.018937,68.9720566 C200.018937,67.5755653 200.111709,65.8519497 200.297257,63.8011582 C200.473039,61.8675548 200.697646,60.0999943 200.971085,58.4984238 C201.430072,55.558956 202.196666,53.7328024 203.27089,53.0199082 C204.110738,52.4437334 205.08729,52.1556504 206.200577,52.1556504 C206.483782,52.1556504 206.747451,52.1800642 206.991593,52.2288926 C207.772847,52.4046747 208.163468,52.7171716 208.163468,53.1663926 C208.163468,53.3421747 208.075578,53.542368 207.899796,53.7669785 C207.763076,53.9232293 207.601945,54.1673675 207.416397,54.4994004 C206.928114,55.378311 206.4789,57.1263404 206.068741,59.743541 C205.590223,62.7611342 205.24843,65.8909857 205.043351,69.1331895 C205.014054,69.6214731 204.984757,70.0365081 204.95546,70.3783066 C204.916397,70.9544814 204.840714,71.3524266 204.728409,71.5721543 C204.616104,71.791882 204.381731,71.9554545 204.025284,72.062877 C203.668837,72.1702994 203.217181,72.2533063 202.670304,72.3119004 C202.484756,72.3314317 202.308976,72.3411973 202.14296,72.3411973 Z M201.908585,79.6361191 C201.058971,79.6361191 200.353412,79.3529188 199.791886,78.7865098 C199.230359,78.2201007 198.978897,77.5365138 199.037491,76.7357285 C199.08632,75.9447089 199.430554,75.2660048 200.070206,74.6995957 C200.709858,74.1331866 201.454479,73.8499863 202.304093,73.8499863 C203.143941,73.8499863 203.847059,74.1331866 204.413468,74.6995957 C204.979877,75.2660048 205.233781,75.9447089 205.175187,76.7357285 C205.126358,77.5365138 204.782123,78.2201007 204.142472,78.7865098 C203.50282,79.3529188 202.758199,79.6361191 201.908585,79.6361191 Z" id="!"></path>
            </g>
        </g>
    </g>
</svg>