<?xml version="1.0" encoding="UTF-8"?>
<svg width="12px" height="23px" viewBox="0 0 12 23" version="1.1" xmlns="http://www.w3.org/2000/svg" xmlns:xlink="http://www.w3.org/1999/xlink">
    <!-- Generator: Sketch 54.1 (76490) - https://sketchapp.com -->
    <title>Group 6</title>
    <desc>Created with Sketch.</desc>
    <g id="SPLASH" stroke="none" stroke-width="1" fill="none" fill-rule="evenodd">
        <g id="Artboard-Copy" transform="translate(-636.000000, -546.000000)" fill="#FFFFFF">
            <g id="Group-6" transform="translate(636.000000, 546.000000)">
                <path d="M3.39143712,8.13278705 C0.502973427,9.04897782 0,6.37082626 0,11.4937555 C0,13.5967642 2.54965355,11.9383916 3.30256498,12.8533807 C3.88321218,14.0589454 3.28541004,20.7546849 3.53773067,22.8189982 C4.88963556,23.1016426 5.26728259,22.9711359 6.74808783,22.9622432 C8.33349057,22.9528697 7.83218498,21.7879231 7.83218498,18.2707311 C7.83218498,17.323536 7.83671198,16.3753795 7.83170846,15.4281844 C7.82932583,15.0102264 7.80001946,14.4987747 7.81050304,14.0978812 C7.81360046,13.9832371 7.83313804,13.575614 7.85458172,13.4782747 C8.13811482,12.1977226 9.15907225,12.7387367 11.2355353,12.5221868 L11.7964066,9.19030001 C11.8054606,7.58215928 9.67348231,8.53344026 7.87030708,8.17556826 C7.75046074,5.98387266 7.48646521,4.17696757 9.42402083,3.92773099 C11.6384382,3.64268318 12.271265,5.26236041 11.9007659,0.246143842 C2.42170626,-1.18366174 4.01235079,3.90081248 3.39143712,8.13278705" id="Fill-4"></path>
            </g>
        </g>
    </g>
</svg>