<?xml version="1.0" encoding="UTF-8"?>
<svg width="25px" height="25px" viewBox="0 0 25 25" version="1.1" xmlns="http://www.w3.org/2000/svg" xmlns:xlink="http://www.w3.org/1999/xlink">
    <!-- Generator: Sketch 54.1 (76490) - https://sketchapp.com -->
    <title>Group 10</title>
    <desc>Created with Sketch.</desc>
    <g id="SPLASH" stroke="none" stroke-width="1" fill="none" fill-rule="evenodd">
        <g id="Artboard-Copy" transform="translate(-708.000000, -545.000000)" fill="#FFFFFF">
            <g id="Group-10" transform="translate(708.000000, 545.000000)">
                <path d="M0.473700778,9.59486459 C0.473700778,15.5126371 -0.767714057,24.948673 8.0947516,24.948673 L17.4634558,24.948673 C21.4555575,24.948673 24.9339801,21.8620278 24.9339801,17.9699831 L24.9339801,7.2393805 C24.9339801,3.62155721 21.622682,0.218967502 17.9837168,0.218967502 L7.58221726,0.218967502 C5.23102679,0.218967502 3.23011103,1.67294516 2.21305517,2.89615098 C0.673162775,4.74808057 0.473700778,6.66878131 0.473700778,9.59486459 M7.36987752,2.72379147 C9.42688301,2.39202099 14.5093006,2.63746784 16.9543555,2.64351049 C24.3081216,2.66221395 22.6809467,9.47199729 22.654905,16.6722512 C22.6437443,19.8060867 21.3556834,22.0280569 18.4953926,22.4590995 C16.2045845,22.8046818 11.197144,22.5160731 8.61157853,22.5232668 C1.20544299,22.5436967 2.82460508,15.5940691 2.88527358,8.27296209 C2.9138908,4.85310765 4.23772321,3.22907244 7.36987752,2.72379147" id="Fill-4"></path>
                <path d="M12.0693967,5.89491875 C2.73732257,7.73620176 5.05846497,20.283629 13.8053171,19.242566 C17.2053285,18.8377082 19.8552827,15.622153 19.3536229,11.6098307 C18.9383871,8.28838524 15.7289663,5.17296547 12.0693967,5.89491875 M11.637563,8.40607312 C16.9698088,6.80218009 19.4812557,15.2138422 13.9632841,16.8007583 C11.3067479,17.5650102 8.9715831,15.7274678 8.60556891,13.7610156 C8.06642056,10.8639946 9.4958505,9.05004739 11.637563,8.40607312" id="Fill-6"></path>
                <path d="M20.2233574,6.6127285 C20.4377003,5.32103927 20.0424966,4.9886933 18.7644517,5.17716655 C17.721068,6.56841571 18.7738954,7.38331077 20.2233574,6.6127285" id="Fill-8"></path>
            </g>
        </g>
    </g>
</svg>