<?xml version="1.0" encoding="UTF-8"?>
<svg width="19px" height="23px" viewBox="0 0 19 23" version="1.1" xmlns="http://www.w3.org/2000/svg" xmlns:xlink="http://www.w3.org/1999/xlink">
    <!-- Generator: Sketch 54.1 (76490) - https://sketchapp.com -->
    <title>Group 10 Copy</title>
    <desc>Created with Sketch.</desc>
    <g id="SPLASH" stroke="none" stroke-width="1" fill="none" fill-rule="evenodd">
        <g id="Artboard-Copy" transform="translate(-796.000000, -544.000000)">
            <g id="Group-10-Copy" transform="translate(793.000000, 542.000000)">
                <g id="map-pin-line-(1)">
                    <polygon id="Path" points="0 0 25 0 25 25 0 25"></polygon>
                    <path d="M12.5,21.7708333 L17.65625,16.6145833 C20.5036092,13.7669336 20.5034522,9.15024087 17.6558993,6.30278482 C14.8083464,3.45532878 10.1916536,3.45532878 7.34410074,6.30278482 C4.49654784,9.15024087 4.49639081,13.7669336 7.34375,16.6145833 L12.5,21.7708333 Z M12.5,24.7166667 L5.87083333,18.0875 C2.20970109,14.4263229 2.20972532,8.49042211 5.87088746,4.82927492 C9.5320496,1.16812772 15.4679504,1.16812772 19.1291125,4.82927492 C22.7902747,8.49042211 22.7902989,14.4263229 19.1291667,18.0875 L12.5,24.7166667 L12.5,24.7166667 Z M12.5,13.5416667 C13.6505932,13.5416667 14.5833333,12.6089266 14.5833333,11.4583333 C14.5833333,10.3077401 13.6505932,9.375 12.5,9.375 C11.3494068,9.375 10.4166667,10.3077401 10.4166667,11.4583333 C10.4166667,12.6089266 11.3494068,13.5416667 12.5,13.5416667 Z M12.5,15.625 C10.1988135,15.625 8.33333333,13.7595198 8.33333333,11.4583333 C8.33333333,9.15714688 10.1988135,7.29166667 12.5,7.29166667 C14.8011865,7.29166667 16.6666667,9.15714688 16.6666667,11.4583333 C16.6666667,13.7595198 14.8011865,15.625 12.5,15.625 Z" id="Shape" fill="#FFFFFF" fill-rule="nonzero"></path>
                </g>
            </g>
        </g>
    </g>
</svg>